<svg width="1170" height="40" viewBox="0 0 1170 40" fill="none" xmlns="http://www.w3.org/2000/svg">
<rect x="1070" width="100" height="40" rx="20" fill="#25DAC5"/>
<path d="M1093.48 26.216C1092.55 26.216 1091.74 26.054 1091.05 25.73C1090.35 25.406 1089.81 24.944 1089.41 24.344C1089.03 23.744 1088.83 23.03 1088.82 22.202H1090.83C1090.84 22.874 1091.08 23.444 1091.53 23.912C1091.99 24.38 1092.63 24.614 1093.46 24.614C1094.19 24.614 1094.76 24.44 1095.17 24.092C1095.59 23.732 1095.8 23.276 1095.8 22.724C1095.8 22.28 1095.7 21.92 1095.49 21.644C1095.3 21.368 1095.03 21.14 1094.68 20.96C1094.35 20.78 1093.96 20.618 1093.51 20.474C1093.07 20.33 1092.6 20.174 1092.11 20.006C1091.14 19.682 1090.41 19.262 1089.91 18.746C1089.43 18.23 1089.19 17.552 1089.19 16.712C1089.18 16.004 1089.34 15.386 1089.68 14.858C1090.03 14.33 1090.51 13.922 1091.12 13.634C1091.74 13.334 1092.47 13.184 1093.3 13.184C1094.11 13.184 1094.83 13.334 1095.44 13.634C1096.06 13.934 1096.55 14.354 1096.9 14.894C1097.25 15.422 1097.43 16.04 1097.44 16.748H1095.42C1095.42 16.424 1095.34 16.118 1095.17 15.83C1095 15.53 1094.76 15.284 1094.43 15.092C1094.11 14.9 1093.71 14.804 1093.24 14.804C1092.64 14.792 1092.15 14.942 1091.75 15.254C1091.37 15.566 1091.17 15.998 1091.17 16.55C1091.17 17.042 1091.32 17.42 1091.61 17.684C1091.89 17.948 1092.29 18.17 1092.79 18.35C1093.3 18.518 1093.87 18.716 1094.52 18.944C1095.15 19.148 1095.7 19.394 1096.2 19.682C1096.69 19.97 1097.08 20.348 1097.37 20.816C1097.67 21.284 1097.82 21.878 1097.82 22.598C1097.82 23.234 1097.65 23.828 1097.33 24.38C1097.01 24.92 1096.52 25.364 1095.87 25.712C1095.22 26.048 1094.43 26.216 1093.48 26.216ZM1100.91 15.38C1100.55 15.38 1100.25 15.272 1100.01 15.056C1099.78 14.828 1099.67 14.546 1099.67 14.21C1099.67 13.874 1099.78 13.598 1100.01 13.382C1100.25 13.154 1100.55 13.04 1100.91 13.04C1101.27 13.04 1101.57 13.154 1101.79 13.382C1102.03 13.598 1102.15 13.874 1102.15 14.21C1102.15 14.546 1102.03 14.828 1101.79 15.056C1101.57 15.272 1101.27 15.38 1100.91 15.38ZM1099.96 26V17.072H1101.87V26H1099.96ZM1108.04 23.264C1107.57 23.264 1107.14 23.21 1106.74 23.102L1105.97 23.858C1106.1 23.942 1106.26 24.014 1106.45 24.074C1106.65 24.134 1106.92 24.188 1107.26 24.236C1107.61 24.284 1108.09 24.332 1108.69 24.38C1109.87 24.488 1110.73 24.776 1111.26 25.244C1111.79 25.7 1112.05 26.312 1112.05 27.08C1112.05 27.608 1111.91 28.106 1111.62 28.574C1111.34 29.054 1110.91 29.438 1110.31 29.726C1109.72 30.026 1108.96 30.176 1108.04 30.176C1106.79 30.176 1105.78 29.936 1105 29.456C1104.23 28.988 1103.84 28.274 1103.84 27.314C1103.84 26.942 1103.94 26.57 1104.13 26.198C1104.34 25.838 1104.65 25.496 1105.09 25.172C1104.83 25.064 1104.61 24.95 1104.42 24.83C1104.24 24.698 1104.08 24.566 1103.93 24.434V24.002L1105.48 22.418C1104.79 21.818 1104.44 21.032 1104.44 20.06C1104.44 19.472 1104.58 18.938 1104.85 18.458C1105.14 17.966 1105.55 17.576 1106.09 17.288C1106.63 17 1107.28 16.856 1108.04 16.856C1108.54 16.856 1109.01 16.928 1109.44 17.072H1112.77V18.332L1111.19 18.422C1111.48 18.914 1111.62 19.46 1111.62 20.06C1111.62 20.66 1111.48 21.2 1111.19 21.68C1110.91 22.16 1110.5 22.544 1109.96 22.832C1109.44 23.12 1108.79 23.264 1108.04 23.264ZM1108.04 21.77C1108.59 21.77 1109.03 21.626 1109.37 21.338C1109.72 21.038 1109.89 20.618 1109.89 20.078C1109.89 19.526 1109.72 19.106 1109.37 18.818C1109.03 18.53 1108.59 18.386 1108.04 18.386C1107.47 18.386 1107.02 18.53 1106.67 18.818C1106.33 19.106 1106.17 19.526 1106.17 20.078C1106.17 20.618 1106.33 21.038 1106.67 21.338C1107.02 21.626 1107.47 21.77 1108.04 21.77ZM1105.64 27.134C1105.64 27.65 1105.87 28.034 1106.33 28.286C1106.78 28.55 1107.35 28.682 1108.04 28.682C1108.7 28.682 1109.23 28.538 1109.64 28.25C1110.05 27.974 1110.25 27.602 1110.25 27.134C1110.25 26.786 1110.11 26.486 1109.84 26.234C1109.56 25.994 1109.04 25.844 1108.27 25.784C1107.7 25.748 1107.19 25.694 1106.74 25.622C1106.32 25.85 1106.03 26.096 1105.88 26.36C1105.72 26.624 1105.64 26.882 1105.64 27.134ZM1114.47 26V17.072H1116.17L1116.31 18.638C1116.59 18.086 1116.99 17.654 1117.52 17.342C1118.06 17.018 1118.67 16.856 1119.37 16.856C1120.45 16.856 1121.3 17.192 1121.91 17.864C1122.53 18.536 1122.84 19.538 1122.84 20.87V26H1120.95V21.068C1120.95 19.34 1120.25 18.476 1118.83 18.476C1118.12 18.476 1117.53 18.728 1117.07 19.232C1116.61 19.736 1116.38 20.456 1116.38 21.392V26H1114.47ZM1134.41 26.216C1133.51 26.216 1132.7 26.042 1131.97 25.694C1131.25 25.334 1130.67 24.788 1130.24 24.056C1129.82 23.324 1129.61 22.394 1129.61 21.266V13.4H1131.52V21.284C1131.52 22.388 1131.78 23.198 1132.31 23.714C1132.84 24.23 1133.55 24.488 1134.45 24.488C1135.34 24.488 1136.05 24.23 1136.57 23.714C1137.1 23.198 1137.37 22.388 1137.37 21.284V13.4H1139.27V21.266C1139.27 22.394 1139.05 23.324 1138.61 24.056C1138.18 24.788 1137.59 25.334 1136.84 25.694C1136.11 26.042 1135.3 26.216 1134.41 26.216ZM1141.65 29.96V17.072H1143.36L1143.56 18.458C1143.85 18.038 1144.24 17.666 1144.75 17.342C1145.25 17.018 1145.9 16.856 1146.69 16.856C1147.55 16.856 1148.32 17.06 1148.98 17.468C1149.64 17.876 1150.15 18.434 1150.52 19.142C1150.91 19.85 1151.1 20.654 1151.1 21.554C1151.1 22.454 1150.91 23.258 1150.52 23.966C1150.15 24.662 1149.64 25.214 1148.98 25.622C1148.32 26.018 1147.55 26.216 1146.67 26.216C1145.98 26.216 1145.36 26.078 1144.82 25.802C1144.29 25.526 1143.87 25.136 1143.56 24.632V29.96H1141.65ZM1146.35 24.56C1147.16 24.56 1147.84 24.284 1148.36 23.732C1148.89 23.168 1149.16 22.436 1149.16 21.536C1149.16 20.948 1149.04 20.426 1148.8 19.97C1148.56 19.514 1148.23 19.16 1147.81 18.908C1147.39 18.644 1146.9 18.512 1146.35 18.512C1145.53 18.512 1144.86 18.794 1144.33 19.358C1143.82 19.922 1143.56 20.648 1143.56 21.536C1143.56 22.436 1143.82 23.168 1144.33 23.732C1144.86 24.284 1145.53 24.56 1146.35 24.56Z" fill="white"/>
<path d="M860.468 22.3999L865.112 9.7999H867.2L871.808 22.3999H869.792L868.712 19.3219H863.564L862.484 22.3999H860.468ZM864.104 17.8099H868.172L866.138 12.0679L864.104 17.8099ZM873.565 22.3999V9.7999H877.975C878.959 9.7999 879.775 9.9679 880.423 10.3039C881.071 10.6279 881.551 11.0779 881.863 11.6539C882.187 12.2179 882.349 12.8599 882.349 13.5799C882.349 14.2639 882.193 14.8939 881.881 15.4699C881.581 16.0339 881.107 16.4839 880.459 16.8199C879.811 17.1559 878.983 17.3239 877.975 17.3239H875.473V22.3999H873.565ZM875.473 15.7579H877.885C878.785 15.7579 879.427 15.5659 879.811 15.1819C880.207 14.7859 880.405 14.2519 880.405 13.5799C880.405 12.8839 880.207 12.3439 879.811 11.9599C879.427 11.5639 878.785 11.3659 877.885 11.3659H875.473V15.7579ZM884.235 22.3999V9.7999H886.143V22.3999H884.235Z" fill="#151439" fill-opacity="0.4"/>
<path d="M924.278 22.3999V9.7999H926.186V15.1999H932.288V9.7999H934.196V22.3999H932.288V16.7659H926.186V22.3999H924.278ZM940.862 22.6159C939.986 22.6159 939.206 22.4239 938.522 22.0399C937.85 21.6439 937.322 21.0979 936.938 20.4019C936.554 19.7059 936.362 18.8959 936.362 17.9719C936.362 17.0359 936.548 16.2139 936.92 15.5059C937.304 14.7979 937.832 14.2459 938.504 13.8499C939.188 13.4539 939.98 13.2559 940.88 13.2559C941.756 13.2559 942.518 13.4539 943.166 13.8499C943.814 14.2339 944.318 14.7499 944.678 15.3979C945.038 16.0459 945.218 16.7599 945.218 17.5399C945.218 17.6599 945.212 17.7919 945.2 17.9359C945.2 18.0679 945.194 18.2179 945.182 18.3859H938.234C938.294 19.2499 938.576 19.9099 939.08 20.3659C939.596 20.8099 940.19 21.0319 940.862 21.0319C941.402 21.0319 941.852 20.9119 942.212 20.6719C942.584 20.4199 942.86 20.0839 943.04 19.6639H944.948C944.708 20.5039 944.228 21.2059 943.508 21.7699C942.8 22.3339 941.918 22.6159 940.862 22.6159ZM940.862 14.8219C940.226 14.8219 939.662 15.0139 939.17 15.3979C938.678 15.7699 938.378 16.3339 938.27 17.0899H943.31C943.274 16.3939 943.028 15.8419 942.572 15.4339C942.116 15.0259 941.546 14.8219 940.862 14.8219ZM947.198 22.3999V9.4399H949.106V22.3999H947.198ZM951.522 26.3599V13.4719H953.232L953.43 14.8579C953.718 14.4379 954.114 14.0659 954.618 13.7419C955.122 13.4179 955.77 13.2559 956.562 13.2559C957.426 13.2559 958.188 13.4599 958.848 13.8679C959.508 14.2759 960.024 14.8339 960.396 15.5419C960.78 16.2499 960.972 17.0539 960.972 17.9539C960.972 18.8539 960.78 19.6579 960.396 20.3659C960.024 21.0619 959.508 21.6139 958.848 22.0219C958.188 22.4179 957.42 22.6159 956.544 22.6159C955.848 22.6159 955.23 22.4779 954.69 22.2019C954.162 21.9259 953.742 21.5359 953.43 21.0319V26.3599H951.522ZM956.22 20.9599C957.036 20.9599 957.708 20.6839 958.236 20.1319C958.764 19.5679 959.028 18.8359 959.028 17.9359C959.028 17.3479 958.908 16.8259 958.668 16.3699C958.428 15.9139 958.098 15.5599 957.678 15.3079C957.258 15.0439 956.772 14.9119 956.22 14.9119C955.404 14.9119 954.732 15.1939 954.204 15.7579C953.688 16.3219 953.43 17.0479 953.43 17.9359C953.43 18.8359 953.688 19.5679 954.204 20.1319C954.732 20.6839 955.404 20.9599 956.22 20.9599Z" fill="#151439" fill-opacity="0.4"/>
<path d="M997.278 22.3999V9.7999H999.186V20.8879H1004.91V22.3999H997.278ZM1010.68 22.6159C1009.83 22.6159 1009.06 22.4239 1008.38 22.0399C1007.7 21.6439 1007.17 21.0979 1006.77 20.4019C1006.38 19.6939 1006.18 18.8719 1006.18 17.9359C1006.18 16.9999 1006.38 16.1839 1006.77 15.4879C1007.18 14.7799 1007.73 14.2339 1008.41 13.8499C1009.1 13.4539 1009.86 13.2559 1010.7 13.2559C1011.55 13.2559 1012.31 13.4539 1012.98 13.8499C1013.67 14.2339 1014.21 14.7799 1014.6 15.4879C1015.01 16.1839 1015.22 16.9999 1015.22 17.9359C1015.22 18.8719 1015.01 19.6939 1014.6 20.4019C1014.21 21.0979 1013.67 21.6439 1012.98 22.0399C1012.3 22.4239 1011.53 22.6159 1010.68 22.6159ZM1010.68 20.9779C1011.14 20.9779 1011.56 20.8639 1011.94 20.6359C1012.34 20.4079 1012.65 20.0719 1012.89 19.6279C1013.13 19.1719 1013.25 18.6079 1013.25 17.9359C1013.25 17.2639 1013.13 16.7059 1012.89 16.2619C1012.67 15.8059 1012.35 15.4639 1011.96 15.2359C1011.57 15.0079 1011.15 14.8939 1010.7 14.8939C1010.24 14.8939 1009.82 15.0079 1009.42 15.2359C1009.04 15.4639 1008.72 15.8059 1008.48 16.2619C1008.24 16.7059 1008.12 17.2639 1008.12 17.9359C1008.12 18.6079 1008.24 19.1719 1008.48 19.6279C1008.72 20.0719 1009.04 20.4079 1009.42 20.6359C1009.8 20.8639 1010.22 20.9779 1010.68 20.9779ZM1020.46 19.6639C1019.99 19.6639 1019.56 19.6099 1019.16 19.5019L1018.39 20.2579C1018.52 20.3419 1018.68 20.4139 1018.88 20.4739C1019.07 20.5339 1019.34 20.5879 1019.69 20.6359C1020.03 20.6839 1020.51 20.7319 1021.11 20.7799C1022.3 20.8879 1023.15 21.1759 1023.68 21.6439C1024.21 22.0999 1024.47 22.7119 1024.47 23.4799C1024.47 24.0079 1024.33 24.5059 1024.04 24.9739C1023.77 25.4539 1023.33 25.8379 1022.73 26.1259C1022.14 26.4259 1021.38 26.5759 1020.46 26.5759C1019.21 26.5759 1018.2 26.3359 1017.42 25.8559C1016.65 25.3879 1016.27 24.6739 1016.27 23.7139C1016.27 23.3419 1016.36 22.9699 1016.55 22.5979C1016.76 22.2379 1017.08 21.8959 1017.51 21.5719C1017.26 21.4639 1017.03 21.3499 1016.84 21.2299C1016.66 21.0979 1016.5 20.9659 1016.36 20.8339V20.4019L1017.9 18.8179C1017.21 18.2179 1016.86 17.4319 1016.86 16.4599C1016.86 15.8719 1017 15.3379 1017.27 14.8579C1017.56 14.3659 1017.98 13.9759 1018.52 13.6879C1019.06 13.3999 1019.7 13.2559 1020.46 13.2559C1020.96 13.2559 1021.43 13.3279 1021.86 13.4719H1025.19V14.7319L1023.61 14.8219C1023.9 15.3139 1024.04 15.8599 1024.04 16.4599C1024.04 17.0599 1023.9 17.5999 1023.61 18.0799C1023.33 18.5599 1022.93 18.9439 1022.39 19.2319C1021.86 19.5199 1021.22 19.6639 1020.46 19.6639ZM1020.46 18.1699C1021.01 18.1699 1021.46 18.0259 1021.79 17.7379C1022.14 17.4379 1022.31 17.0179 1022.31 16.4779C1022.31 15.9259 1022.14 15.5059 1021.79 15.2179C1021.46 14.9299 1021.01 14.7859 1020.46 14.7859C1019.9 14.7859 1019.44 14.9299 1019.09 15.2179C1018.76 15.5059 1018.59 15.9259 1018.59 16.4779C1018.59 17.0179 1018.76 17.4379 1019.09 17.7379C1019.44 18.0259 1019.9 18.1699 1020.46 18.1699ZM1018.07 23.5339C1018.07 24.0499 1018.29 24.4339 1018.75 24.6859C1019.21 24.9499 1019.78 25.0819 1020.46 25.0819C1021.12 25.0819 1021.65 24.9379 1022.06 24.6499C1022.47 24.3739 1022.67 24.0019 1022.67 23.5339C1022.67 23.1859 1022.54 22.8859 1022.26 22.6339C1021.98 22.3939 1021.46 22.2439 1020.69 22.1839C1020.12 22.1479 1019.61 22.0939 1019.16 22.0219C1018.74 22.2499 1018.46 22.4959 1018.3 22.7599C1018.14 23.0239 1018.07 23.2819 1018.07 23.5339ZM1027.98 11.7799C1027.62 11.7799 1027.32 11.6719 1027.08 11.4559C1026.85 11.2279 1026.73 10.9459 1026.73 10.6099C1026.73 10.2739 1026.85 9.9979 1027.08 9.7819C1027.32 9.5539 1027.62 9.4399 1027.98 9.4399C1028.34 9.4399 1028.63 9.5539 1028.86 9.7819C1029.1 9.9979 1029.22 10.2739 1029.22 10.6099C1029.22 10.9459 1029.1 11.2279 1028.86 11.4559C1028.63 11.6719 1028.34 11.7799 1027.98 11.7799ZM1027.02 22.3999V13.4719H1028.93V22.3999H1027.02ZM1031.45 22.3999V13.4719H1033.14L1033.28 15.0379C1033.56 14.4859 1033.96 14.0539 1034.49 13.7419C1035.03 13.4179 1035.65 13.2559 1036.34 13.2559C1037.42 13.2559 1038.27 13.5919 1038.88 14.2639C1039.51 14.9359 1039.82 15.9379 1039.82 17.2699V22.3999H1037.93V17.4679C1037.93 15.7399 1037.22 14.8759 1035.8 14.8759C1035.1 14.8759 1034.51 15.1279 1034.04 15.6319C1033.58 16.1359 1033.36 16.8559 1033.36 17.7919V22.3999H1031.45Z" fill="#151439" fill-opacity="0.4"/>
<path d="M358.894 22.6159C357.646 22.6159 356.566 22.3459 355.654 21.8059C354.754 21.2539 354.058 20.4919 353.566 19.5199C353.074 18.5359 352.828 17.4019 352.828 16.1179C352.828 14.8219 353.074 13.6879 353.566 12.7159C354.058 11.7319 354.754 10.9639 355.654 10.4119C356.566 9.8599 357.646 9.5839 358.894 9.5839C360.37 9.5839 361.576 9.9439 362.512 10.6639C363.448 11.3839 364.042 12.3919 364.294 13.6879H362.17C362.002 12.9559 361.642 12.3739 361.09 11.9419C360.538 11.5099 359.8 11.2939 358.876 11.2939C357.616 11.2939 356.62 11.7259 355.888 12.5899C355.156 13.4419 354.79 14.6179 354.79 16.1179C354.79 17.6059 355.156 18.7759 355.888 19.6279C356.62 20.4799 357.616 20.9059 358.876 20.9059C359.8 20.9059 360.538 20.7019 361.09 20.2939C361.642 19.8859 362.002 19.3279 362.17 18.6199H364.294C364.042 19.8679 363.448 20.8459 362.512 21.5539C361.576 22.2619 360.37 22.6159 358.894 22.6159ZM370.495 22.6159C369.643 22.6159 368.875 22.4239 368.191 22.0399C367.519 21.6439 366.985 21.0979 366.589 20.4019C366.193 19.6939 365.995 18.8719 365.995 17.9359C365.995 16.9999 366.193 16.1839 366.589 15.4879C366.997 14.7799 367.543 14.2339 368.227 13.8499C368.911 13.4539 369.673 13.2559 370.513 13.2559C371.365 13.2559 372.127 13.4539 372.799 13.8499C373.483 14.2339 374.023 14.7799 374.419 15.4879C374.827 16.1839 375.031 16.9999 375.031 17.9359C375.031 18.8719 374.827 19.6939 374.419 20.4019C374.023 21.0979 373.483 21.6439 372.799 22.0399C372.115 22.4239 371.347 22.6159 370.495 22.6159ZM370.495 20.9779C370.951 20.9779 371.371 20.8639 371.755 20.6359C372.151 20.4079 372.469 20.0719 372.709 19.6279C372.949 19.1719 373.069 18.6079 373.069 17.9359C373.069 17.2639 372.949 16.7059 372.709 16.2619C372.481 15.8059 372.169 15.4639 371.773 15.2359C371.389 15.0079 370.969 14.8939 370.513 14.8939C370.057 14.8939 369.631 15.0079 369.235 15.2359C368.851 15.4639 368.539 15.8059 368.299 16.2619C368.059 16.7059 367.939 17.2639 367.939 17.9359C367.939 18.6079 368.059 19.1719 368.299 19.6279C368.539 20.0719 368.851 20.4079 369.235 20.6359C369.619 20.8639 370.039 20.9779 370.495 20.9779ZM377.095 22.3999V13.4719H378.787L378.949 14.7319C379.237 14.2759 379.615 13.9159 380.083 13.6519C380.563 13.3879 381.115 13.2559 381.739 13.2559C383.155 13.2559 384.139 13.8139 384.691 14.9299C385.015 14.4139 385.447 14.0059 385.987 13.7059C386.539 13.4059 387.133 13.2559 387.769 13.2559C388.885 13.2559 389.761 13.5919 390.397 14.2639C391.033 14.9359 391.351 15.9379 391.351 17.2699V22.3999H389.443V17.4679C389.443 15.7399 388.783 14.8759 387.463 14.8759C386.791 14.8759 386.239 15.1279 385.807 15.6319C385.387 16.1359 385.177 16.8559 385.177 17.7919V22.3999H383.269V17.4679C383.269 15.7399 382.603 14.8759 381.271 14.8759C380.611 14.8759 380.065 15.1279 379.633 15.6319C379.213 16.1359 379.003 16.8559 379.003 17.7919V22.3999H377.095ZM393.583 22.3999V13.4719H395.275L395.437 14.7319C395.725 14.2759 396.103 13.9159 396.571 13.6519C397.051 13.3879 397.603 13.2559 398.227 13.2559C399.643 13.2559 400.627 13.8139 401.179 14.9299C401.503 14.4139 401.935 14.0059 402.475 13.7059C403.027 13.4059 403.621 13.2559 404.257 13.2559C405.373 13.2559 406.249 13.5919 406.885 14.2639C407.521 14.9359 407.839 15.9379 407.839 17.2699V22.3999H405.931V17.4679C405.931 15.7399 405.271 14.8759 403.951 14.8759C403.279 14.8759 402.727 15.1279 402.295 15.6319C401.875 16.1359 401.665 16.8559 401.665 17.7919V22.3999H399.757V17.4679C399.757 15.7399 399.091 14.8759 397.759 14.8759C397.099 14.8759 396.553 15.1279 396.121 15.6319C395.701 16.1359 395.491 16.8559 395.491 17.7919V22.3999H393.583ZM418.279 13.4719V22.3999H416.587L416.443 20.8339C416.167 21.3859 415.759 21.8239 415.219 22.1479C414.691 22.4599 414.079 22.6159 413.383 22.6159C412.303 22.6159 411.451 22.2799 410.827 21.6079C410.215 20.9359 409.909 19.9339 409.909 18.6019V13.4719H411.799V18.4039C411.799 20.1319 412.507 20.9959 413.923 20.9959C414.631 20.9959 415.213 20.7439 415.669 20.2399C416.137 19.7359 416.371 19.0159 416.371 18.0799V13.4719H418.279ZM420.688 22.3999V13.4719H422.38L422.524 15.0379C422.8 14.4859 423.202 14.0539 423.73 13.7419C424.27 13.4179 424.888 13.2559 425.584 13.2559C426.664 13.2559 427.51 13.5919 428.122 14.2639C428.746 14.9359 429.058 15.9379 429.058 17.2699V22.3999H427.168V17.4679C427.168 15.7399 426.46 14.8759 425.044 14.8759C424.336 14.8759 423.748 15.1279 423.28 15.6319C422.824 16.1359 422.596 16.8559 422.596 17.7919V22.3999H420.688ZM432.386 11.7799C432.026 11.7799 431.726 11.6719 431.486 11.4559C431.258 11.2279 431.144 10.9459 431.144 10.6099C431.144 10.2739 431.258 9.9979 431.486 9.7819C431.726 9.5539 432.026 9.4399 432.386 9.4399C432.746 9.4399 433.04 9.5539 433.268 9.7819C433.508 9.9979 433.628 10.2739 433.628 10.6099C433.628 10.9459 433.508 11.2279 433.268 11.4559C433.04 11.6719 432.746 11.7799 432.386 11.7799ZM431.432 22.3999V13.4719H433.34V22.3999H431.432ZM439.602 22.3999C438.726 22.3999 438.03 22.1899 437.514 21.7699C436.998 21.3379 436.74 20.5759 436.74 19.4839V15.0739H435.21V13.4719H436.74L436.974 11.2039H438.648V13.4719H441.168V15.0739H438.648V19.4839C438.648 19.9759 438.75 20.3179 438.954 20.5099C439.17 20.6899 439.536 20.7799 440.052 20.7799H441.078V22.3999H439.602ZM444.18 26.3599L446.322 21.6619H445.8L442.272 13.4719H444.342L447.078 20.0779L449.94 13.4719H451.956L446.196 26.3599H444.18Z" fill="#151439" fill-opacity="0.4"/>
<path d="M266.278 22.3999V9.7999H270.688C271.672 9.7999 272.488 9.9679 273.136 10.3039C273.784 10.6279 274.264 11.0779 274.576 11.6539C274.9 12.2179 275.062 12.8599 275.062 13.5799C275.062 14.2639 274.906 14.8939 274.594 15.4699C274.294 16.0339 273.82 16.4839 273.172 16.8199C272.524 17.1559 271.696 17.3239 270.688 17.3239H268.186V22.3999H266.278ZM268.186 15.7579H270.598C271.498 15.7579 272.14 15.5659 272.524 15.1819C272.92 14.7859 273.118 14.2519 273.118 13.5799C273.118 12.8839 272.92 12.3439 272.524 11.9599C272.14 11.5639 271.498 11.3659 270.598 11.3659H268.186V15.7579ZM276.876 22.3999V13.4719H278.586L278.748 15.1639C279.06 14.5759 279.492 14.1139 280.044 13.7779C280.608 13.4299 281.286 13.2559 282.078 13.2559V15.2539H281.556C281.028 15.2539 280.554 15.3439 280.134 15.5239C279.726 15.6919 279.396 15.9859 279.144 16.4059C278.904 16.8139 278.784 17.3839 278.784 18.1159V22.3999H276.876ZM284.794 11.7799C284.434 11.7799 284.134 11.6719 283.894 11.4559C283.666 11.2279 283.552 10.9459 283.552 10.6099C283.552 10.2739 283.666 9.9979 283.894 9.7819C284.134 9.5539 284.434 9.4399 284.794 9.4399C285.154 9.4399 285.448 9.5539 285.676 9.7819C285.916 9.9979 286.036 10.2739 286.036 10.6099C286.036 10.9459 285.916 11.2279 285.676 11.4559C285.448 11.6719 285.154 11.7799 284.794 11.7799ZM283.84 22.3999V13.4719H285.748V22.3999H283.84ZM292.497 22.6159C291.621 22.6159 290.835 22.4179 290.139 22.0219C289.455 21.6259 288.915 21.0799 288.519 20.3839C288.135 19.6759 287.943 18.8599 287.943 17.9359C287.943 17.0119 288.135 16.2019 288.519 15.5059C288.915 14.7979 289.455 14.2459 290.139 13.8499C290.835 13.4539 291.621 13.2559 292.497 13.2559C293.601 13.2559 294.525 13.5439 295.269 14.1199C296.025 14.6959 296.511 15.4759 296.727 16.4599H294.729C294.609 15.9679 294.345 15.5839 293.937 15.3079C293.529 15.0319 293.049 14.8939 292.497 14.8939C292.029 14.8939 291.597 15.0139 291.201 15.2539C290.805 15.4819 290.487 15.8239 290.247 16.2799C290.007 16.7239 289.887 17.2759 289.887 17.9359C289.887 18.5959 290.007 19.1539 290.247 19.6099C290.487 20.0539 290.805 20.3959 291.201 20.6359C291.597 20.8759 292.029 20.9959 292.497 20.9959C293.049 20.9959 293.529 20.8579 293.937 20.5819C294.345 20.3059 294.609 19.9159 294.729 19.4119H296.727C296.523 20.3719 296.043 21.1459 295.287 21.7339C294.531 22.3219 293.601 22.6159 292.497 22.6159ZM299.876 11.7799C299.516 11.7799 299.216 11.6719 298.976 11.4559C298.748 11.2279 298.634 10.9459 298.634 10.6099C298.634 10.2739 298.748 9.9979 298.976 9.7819C299.216 9.5539 299.516 9.4399 299.876 9.4399C300.236 9.4399 300.53 9.5539 300.758 9.7819C300.998 9.9979 301.118 10.2739 301.118 10.6099C301.118 10.9459 300.998 11.2279 300.758 11.4559C300.53 11.6719 300.236 11.7799 299.876 11.7799ZM298.922 22.3999V13.4719H300.83V22.3999H298.922ZM303.349 22.3999V13.4719H305.041L305.185 15.0379C305.461 14.4859 305.863 14.0539 306.391 13.7419C306.931 13.4179 307.549 13.2559 308.245 13.2559C309.325 13.2559 310.171 13.5919 310.783 14.2639C311.407 14.9359 311.719 15.9379 311.719 17.2699V22.3999H309.829V17.4679C309.829 15.7399 309.121 14.8759 307.705 14.8759C306.997 14.8759 306.409 15.1279 305.941 15.6319C305.485 16.1359 305.257 16.8559 305.257 17.7919V22.3999H303.349ZM317.62 19.6639C317.152 19.6639 316.72 19.6099 316.324 19.5019L315.55 20.2579C315.682 20.3419 315.844 20.4139 316.036 20.4739C316.228 20.5339 316.498 20.5879 316.846 20.6359C317.194 20.6839 317.668 20.7319 318.268 20.7799C319.456 20.8879 320.314 21.1759 320.842 21.6439C321.37 22.0999 321.634 22.7119 321.634 23.4799C321.634 24.0079 321.49 24.5059 321.202 24.9739C320.926 25.4539 320.488 25.8379 319.888 26.1259C319.3 26.4259 318.544 26.5759 317.62 26.5759C316.372 26.5759 315.358 26.3359 314.578 25.8559C313.81 25.3879 313.426 24.6739 313.426 23.7139C313.426 23.3419 313.522 22.9699 313.714 22.5979C313.918 22.2379 314.236 21.8959 314.668 21.5719C314.416 21.4639 314.194 21.3499 314.002 21.2299C313.822 21.0979 313.66 20.9659 313.516 20.8339V20.4019L315.064 18.8179C314.368 18.2179 314.02 17.4319 314.02 16.4599C314.02 15.8719 314.158 15.3379 314.434 14.8579C314.722 14.3659 315.136 13.9759 315.676 13.6879C316.216 13.3999 316.864 13.2559 317.62 13.2559C318.124 13.2559 318.592 13.3279 319.024 13.4719H322.354V14.7319L320.77 14.8219C321.058 15.3139 321.202 15.8599 321.202 16.4599C321.202 17.0599 321.058 17.5999 320.77 18.0799C320.494 18.5599 320.086 18.9439 319.546 19.2319C319.018 19.5199 318.376 19.6639 317.62 19.6639ZM317.62 18.1699C318.172 18.1699 318.616 18.0259 318.952 17.7379C319.3 17.4379 319.474 17.0179 319.474 16.4779C319.474 15.9259 319.3 15.5059 318.952 15.2179C318.616 14.9299 318.172 14.7859 317.62 14.7859C317.056 14.7859 316.6 14.9299 316.252 15.2179C315.916 15.5059 315.748 15.9259 315.748 16.4779C315.748 17.0179 315.916 17.4379 316.252 17.7379C316.6 18.0259 317.056 18.1699 317.62 18.1699ZM315.226 23.5339C315.226 24.0499 315.454 24.4339 315.91 24.6859C316.366 24.9499 316.936 25.0819 317.62 25.0819C318.28 25.0819 318.814 24.9379 319.222 24.6499C319.63 24.3739 319.834 24.0019 319.834 23.5339C319.834 23.1859 319.696 22.8859 319.42 22.6339C319.144 22.3939 318.622 22.2439 317.854 22.1839C317.278 22.1479 316.768 22.0939 316.324 22.0219C315.904 22.2499 315.616 22.4959 315.46 22.7599C315.304 23.0239 315.226 23.2819 315.226 23.5339Z" fill="#151439" fill-opacity="0.4"/>
<path d="M238.072 15.0714C238.072 14.9821 238.027 14.8817 237.96 14.8147L237.402 14.2567C237.335 14.1897 237.235 14.1451 237.146 14.1451C237.056 14.1451 236.956 14.1897 236.889 14.2567L232.503 18.6429L228.117 14.2567C228.05 14.1897 227.949 14.1451 227.86 14.1451C227.759 14.1451 227.67 14.1897 227.603 14.2567L227.045 14.8147C226.978 14.8817 226.934 14.9821 226.934 15.0714C226.934 15.1607 226.978 15.2612 227.045 15.3281L232.246 20.529C232.313 20.596 232.414 20.6406 232.503 20.6406C232.592 20.6406 232.693 20.596 232.759 20.529L237.96 15.3281C238.027 15.2612 238.072 15.1607 238.072 15.0714Z" fill="#151439" fill-opacity="0.4"/>
<path d="M144.278 22.3999V9.7999H148.688C149.672 9.7999 150.488 9.9679 151.136 10.3039C151.784 10.6279 152.264 11.0779 152.576 11.6539C152.9 12.2179 153.062 12.8599 153.062 13.5799C153.062 14.2639 152.906 14.8939 152.594 15.4699C152.294 16.0339 151.82 16.4839 151.172 16.8199C150.524 17.1559 149.696 17.3239 148.688 17.3239H146.186V22.3999H144.278ZM146.186 15.7579H148.598C149.498 15.7579 150.14 15.5659 150.524 15.1819C150.92 14.7859 151.118 14.2519 151.118 13.5799C151.118 12.8839 150.92 12.3439 150.524 11.9599C150.14 11.5639 149.498 11.3659 148.598 11.3659H146.186V15.7579ZM154.876 22.3999V13.4719H156.586L156.748 15.1639C157.06 14.5759 157.492 14.1139 158.044 13.7779C158.608 13.4299 159.286 13.2559 160.078 13.2559V15.2539H159.556C159.028 15.2539 158.554 15.3439 158.134 15.5239C157.726 15.6919 157.396 15.9859 157.144 16.4059C156.904 16.8139 156.784 17.3839 156.784 18.1159V22.3999H154.876ZM165.644 22.6159C164.792 22.6159 164.024 22.4239 163.34 22.0399C162.668 21.6439 162.134 21.0979 161.738 20.4019C161.342 19.6939 161.144 18.8719 161.144 17.9359C161.144 16.9999 161.342 16.1839 161.738 15.4879C162.146 14.7799 162.692 14.2339 163.376 13.8499C164.06 13.4539 164.822 13.2559 165.662 13.2559C166.514 13.2559 167.276 13.4539 167.948 13.8499C168.632 14.2339 169.172 14.7799 169.568 15.4879C169.976 16.1839 170.18 16.9999 170.18 17.9359C170.18 18.8719 169.976 19.6939 169.568 20.4019C169.172 21.0979 168.632 21.6439 167.948 22.0399C167.264 22.4239 166.496 22.6159 165.644 22.6159ZM165.644 20.9779C166.1 20.9779 166.52 20.8639 166.904 20.6359C167.3 20.4079 167.618 20.0719 167.858 19.6279C168.098 19.1719 168.218 18.6079 168.218 17.9359C168.218 17.2639 168.098 16.7059 167.858 16.2619C167.63 15.8059 167.318 15.4639 166.922 15.2359C166.538 15.0079 166.118 14.8939 165.662 14.8939C165.206 14.8939 164.78 15.0079 164.384 15.2359C164 15.4639 163.688 15.8059 163.448 16.2619C163.208 16.7059 163.088 17.2639 163.088 17.9359C163.088 18.6079 163.208 19.1719 163.448 19.6279C163.688 20.0719 164 20.4079 164.384 20.6359C164.768 20.8639 165.188 20.9779 165.644 20.9779ZM176.311 22.6159C175.447 22.6159 174.685 22.4119 174.025 22.0039C173.365 21.5959 172.849 21.0379 172.477 20.3299C172.105 19.6219 171.919 18.8179 171.919 17.9179C171.919 17.0179 172.105 16.2199 172.477 15.5239C172.849 14.8159 173.365 14.2639 174.025 13.8679C174.697 13.4599 175.465 13.2559 176.329 13.2559C177.037 13.2559 177.655 13.3939 178.183 13.6699C178.723 13.9459 179.143 14.3359 179.443 14.8399V9.4399H181.351V22.3999H179.641L179.443 21.0139C179.155 21.4339 178.759 21.8059 178.255 22.1299C177.751 22.4539 177.103 22.6159 176.311 22.6159ZM176.653 20.9599C177.469 20.9599 178.135 20.6779 178.651 20.1139C179.179 19.5499 179.443 18.8239 179.443 17.9359C179.443 17.0359 179.179 16.3099 178.651 15.7579C178.135 15.1939 177.469 14.9119 176.653 14.9119C175.837 14.9119 175.165 15.1939 174.637 15.7579C174.109 16.3099 173.845 17.0359 173.845 17.9359C173.845 18.5239 173.965 19.0459 174.205 19.5019C174.445 19.9579 174.775 20.3179 175.195 20.5819C175.627 20.8339 176.113 20.9599 176.653 20.9599ZM191.965 13.4719V22.3999H190.273L190.129 20.8339C189.853 21.3859 189.445 21.8239 188.905 22.1479C188.377 22.4599 187.765 22.6159 187.069 22.6159C185.989 22.6159 185.137 22.2799 184.513 21.6079C183.901 20.9359 183.595 19.9339 183.595 18.6019V13.4719H185.485V18.4039C185.485 20.1319 186.193 20.9959 187.609 20.9959C188.317 20.9959 188.899 20.7439 189.355 20.2399C189.823 19.7359 190.057 19.0159 190.057 18.0799V13.4719H191.965ZM198.604 22.6159C197.728 22.6159 196.942 22.4179 196.246 22.0219C195.562 21.6259 195.022 21.0799 194.626 20.3839C194.242 19.6759 194.05 18.8599 194.05 17.9359C194.05 17.0119 194.242 16.2019 194.626 15.5059C195.022 14.7979 195.562 14.2459 196.246 13.8499C196.942 13.4539 197.728 13.2559 198.604 13.2559C199.708 13.2559 200.632 13.5439 201.376 14.1199C202.132 14.6959 202.618 15.4759 202.834 16.4599H200.836C200.716 15.9679 200.452 15.5839 200.044 15.3079C199.636 15.0319 199.156 14.8939 198.604 14.8939C198.136 14.8939 197.704 15.0139 197.308 15.2539C196.912 15.4819 196.594 15.8239 196.354 16.2799C196.114 16.7239 195.994 17.2759 195.994 17.9359C195.994 18.5959 196.114 19.1539 196.354 19.6099C196.594 20.0539 196.912 20.3959 197.308 20.6359C197.704 20.8759 198.136 20.9959 198.604 20.9959C199.156 20.9959 199.636 20.8579 200.044 20.5819C200.452 20.3059 200.716 19.9159 200.836 19.4119H202.834C202.63 20.3719 202.15 21.1459 201.394 21.7339C200.638 22.3219 199.708 22.6159 198.604 22.6159ZM208.471 22.3999C207.595 22.3999 206.899 22.1899 206.383 21.7699C205.867 21.3379 205.609 20.5759 205.609 19.4839V15.0739H204.079V13.4719H205.609L205.843 11.2039H207.517V13.4719H210.037V15.0739H207.517V19.4839C207.517 19.9759 207.619 20.3179 207.823 20.5099C208.039 20.6899 208.405 20.7799 208.921 20.7799H209.947V22.3999H208.471ZM215.569 22.6159C214.441 22.6159 213.511 22.3399 212.779 21.7879C212.047 21.2359 211.627 20.5039 211.519 19.5919H213.445C213.541 19.9999 213.769 20.3539 214.129 20.6539C214.489 20.9419 214.963 21.0859 215.551 21.0859C216.127 21.0859 216.547 20.9659 216.811 20.7259C217.075 20.4859 217.207 20.2099 217.207 19.8979C217.207 19.4419 217.021 19.1359 216.649 18.9799C216.289 18.8119 215.785 18.6619 215.137 18.5299C214.633 18.4219 214.129 18.2779 213.625 18.0979C213.133 17.9179 212.719 17.6659 212.383 17.3419C212.059 17.0059 211.897 16.5559 211.897 15.9919C211.897 15.2119 212.197 14.5639 212.797 14.0479C213.397 13.5199 214.237 13.2559 215.317 13.2559C216.313 13.2559 217.117 13.4959 217.729 13.9759C218.353 14.4559 218.719 15.1339 218.827 16.0099H216.991C216.931 15.6259 216.751 15.3259 216.451 15.1099C216.163 14.8939 215.773 14.7859 215.281 14.7859C214.801 14.7859 214.429 14.8879 214.165 15.0919C213.901 15.2839 213.769 15.5359 213.769 15.8479C213.769 16.1599 213.949 16.4059 214.309 16.5859C214.681 16.7659 215.167 16.9279 215.767 17.0719C216.367 17.2039 216.919 17.3599 217.423 17.5399C217.939 17.7079 218.353 17.9599 218.665 18.2959C218.977 18.6319 219.133 19.1239 219.133 19.7719C219.145 20.5879 218.827 21.2659 218.179 21.8059C217.543 22.3459 216.673 22.6159 215.569 22.6159Z" fill="#151439" fill-opacity="0.4"/>
<path d="M9.60304 23.288C8.37104 23.288 7.28304 23.08 6.33904 22.664C5.39504 22.232 4.65104 21.624 4.10704 20.84C3.56304 20.04 3.28304 19.072 3.26704 17.936H6.50704C6.53904 18.72 6.81904 19.384 7.34704 19.928C7.89104 20.456 8.63504 20.72 9.57904 20.72C10.395 20.72 11.043 20.528 11.523 20.144C12.003 19.744 12.243 19.216 12.243 18.56C12.243 17.872 12.027 17.336 11.595 16.952C11.179 16.568 10.619 16.256 9.91504 16.016C9.21104 15.776 8.45904 15.52 7.65904 15.248C6.36304 14.8 5.37104 14.224 4.68304 13.52C4.01104 12.816 3.67504 11.88 3.67504 10.712C3.65904 9.72 3.89104 8.872 4.37104 8.168C4.86704 7.448 5.53904 6.896 6.38704 6.512C7.23504 6.112 8.21104 5.912 9.31504 5.912C10.435 5.912 11.419 6.112 12.267 6.512C13.131 6.912 13.803 7.472 14.283 8.192C14.779 8.912 15.043 9.768 15.075 10.76H11.787C11.771 10.168 11.539 9.648 11.091 9.2C10.659 8.736 10.051 8.504 9.26704 8.504C8.59504 8.488 8.02704 8.656 7.56304 9.008C7.11504 9.344 6.89104 9.84 6.89104 10.496C6.89104 11.056 7.06704 11.504 7.41904 11.84C7.77104 12.16 8.25104 12.432 8.85904 12.656C9.46704 12.88 10.163 13.12 10.947 13.376C11.779 13.664 12.539 14 13.227 14.384C13.915 14.768 14.467 15.28 14.883 15.92C15.299 16.544 15.507 17.352 15.507 18.344C15.507 19.224 15.283 20.04 14.835 20.792C14.387 21.544 13.723 22.152 12.843 22.616C11.963 23.064 10.883 23.288 9.60304 23.288ZM23.1267 23C21.8787 23 20.8787 22.696 20.1267 22.088C19.3747 21.48 18.9987 20.4 18.9987 18.848V13.664H16.9587V11.096H18.9987L19.3587 7.904H22.0707V11.096H25.2867V13.664H22.0707V18.872C22.0707 19.448 22.1907 19.848 22.4307 20.072C22.6867 20.28 23.1187 20.384 23.7267 20.384H25.2147V23H23.1267ZM31.7356 23.288C30.7116 23.288 29.8716 23.128 29.2156 22.808C28.5596 22.472 28.0716 22.032 27.7516 21.488C27.4316 20.944 27.2716 20.344 27.2716 19.688C27.2716 18.584 27.7036 17.688 28.5676 17C29.4316 16.312 30.7276 15.968 32.4556 15.968H35.4796V15.68C35.4796 14.864 35.2476 14.264 34.7836 13.88C34.3196 13.496 33.7436 13.304 33.0556 13.304C32.4316 13.304 31.8876 13.456 31.4236 13.76C30.9596 14.048 30.6716 14.48 30.5596 15.056H27.5596C27.6396 14.192 27.9276 13.44 28.4236 12.8C28.9356 12.16 29.5916 11.672 30.3916 11.336C31.1916 10.984 32.0876 10.808 33.0796 10.808C34.7756 10.808 36.1116 11.232 37.0876 12.08C38.0636 12.928 38.5516 14.128 38.5516 15.68V23H35.9356L35.6476 21.08C35.2956 21.72 34.7996 22.248 34.1596 22.664C33.5356 23.08 32.7276 23.288 31.7356 23.288ZM32.4316 20.888C33.3116 20.888 33.9916 20.6 34.4716 20.024C34.9676 19.448 35.2796 18.736 35.4076 17.888H32.7916C31.9756 17.888 31.3916 18.04 31.0396 18.344C30.6876 18.632 30.5116 18.992 30.5116 19.424C30.5116 19.888 30.6876 20.248 31.0396 20.504C31.3916 20.76 31.8556 20.888 32.4316 20.888ZM41.1904 23V11.096H43.9264L44.2144 13.328C44.6464 12.56 45.2304 11.952 45.9664 11.504C46.7184 11.04 47.5984 10.808 48.6064 10.808V14.048H47.7424C47.0704 14.048 46.4704 14.152 45.9424 14.36C45.4144 14.568 44.9984 14.928 44.6944 15.44C44.4064 15.952 44.2624 16.664 44.2624 17.576V23H41.1904ZM55.7174 23C54.4694 23 53.4694 22.696 52.7174 22.088C51.9654 21.48 51.5894 20.4 51.5894 18.848V13.664H49.5494V11.096H51.5894L51.9494 7.904H54.6614V11.096H57.8774V13.664H54.6614V18.872C54.6614 19.448 54.7814 19.848 55.0214 20.072C55.2774 20.28 55.7094 20.384 56.3174 20.384H57.8054V23H55.7174ZM71.6943 11.096V23H68.9823L68.7423 20.984C68.3743 21.688 67.8383 22.248 67.1343 22.664C66.4463 23.08 65.6303 23.288 64.6863 23.288C63.2143 23.288 62.0703 22.824 61.2543 21.896C60.4383 20.968 60.0303 19.608 60.0303 17.816V11.096H63.1023V17.528C63.1023 18.552 63.3103 19.336 63.7263 19.88C64.1423 20.424 64.7903 20.696 65.6703 20.696C66.5343 20.696 67.2383 20.392 67.7823 19.784C68.3423 19.176 68.6223 18.328 68.6223 17.24V11.096H71.6943ZM74.5311 28.28V11.096H77.2671L77.6031 12.8C77.9871 12.272 78.4911 11.808 79.1151 11.408C79.7551 11.008 80.5791 10.808 81.5871 10.808C82.7071 10.808 83.7071 11.08 84.5871 11.624C85.4671 12.168 86.1631 12.912 86.6751 13.856C87.1871 14.8 87.4431 15.872 87.4431 17.072C87.4431 18.272 87.1871 19.344 86.6751 20.288C86.1631 21.216 85.4671 21.952 84.5871 22.496C83.7071 23.024 82.7071 23.288 81.5871 23.288C80.6911 23.288 79.9071 23.12 79.2351 22.784C78.5631 22.448 78.0191 21.976 77.6031 21.368V28.28H74.5311ZM80.9391 20.6C81.9151 20.6 82.7231 20.272 83.3631 19.616C84.0031 18.96 84.3231 18.112 84.3231 17.072C84.3231 16.032 84.0031 15.176 83.3631 14.504C82.7231 13.832 81.9151 13.496 80.9391 13.496C79.9471 13.496 79.1311 13.832 78.4911 14.504C77.8671 15.16 77.5551 16.008 77.5551 17.048C77.5551 18.088 77.8671 18.944 78.4911 19.616C79.1311 20.272 79.9471 20.6 80.9391 20.6ZM100.889 23.288C99.7848 23.288 98.7848 23.096 97.8888 22.712C96.9928 22.312 96.2728 21.704 95.7288 20.888C95.1848 20.072 94.8968 19.048 94.8648 17.816H97.8888C97.9048 18.632 98.1688 19.32 98.6808 19.88C99.2088 20.424 99.9448 20.696 100.889 20.696C101.785 20.696 102.473 20.448 102.953 19.952C103.433 19.456 103.673 18.832 103.673 18.08C103.673 17.2 103.353 16.536 102.713 16.088C102.089 15.624 101.281 15.392 100.289 15.392H99.0408V12.872H100.313C101.129 12.872 101.809 12.68 102.353 12.296C102.897 11.912 103.169 11.344 103.169 10.592C103.169 9.968 102.961 9.472 102.545 9.104C102.145 8.72 101.585 8.528 100.865 8.528C100.081 8.528 99.4648 8.76 99.0168 9.224C98.5848 9.688 98.3448 10.256 98.2968 10.928H95.2968C95.3608 9.376 95.8968 8.152 96.9048 7.256C97.9288 6.36 99.2488 5.912 100.865 5.912C102.017 5.912 102.985 6.12 103.769 6.536C104.569 6.936 105.169 7.472 105.569 8.144C105.985 8.816 106.193 9.56 106.193 10.376C106.193 11.32 105.929 12.12 105.401 12.776C104.889 13.416 104.249 13.848 103.481 14.072C104.425 14.264 105.193 14.728 105.785 15.464C106.377 16.184 106.673 17.096 106.673 18.2C106.673 19.128 106.449 19.976 106.001 20.744C105.553 21.512 104.897 22.128 104.033 22.592C103.185 23.056 102.137 23.288 100.889 23.288Z" fill="#1E0E62"/>
</svg>
