<svg width="470" height="283" viewBox="0 0 470 283" fill="none" xmlns="http://www.w3.org/2000/svg">
<rect y="180" width="470" height="60" rx="30" fill="#25DAC5"/>
<path d="M210.229 217.24C209.203 217.24 208.303 217.06 207.529 216.7C206.756 216.34 206.149 215.827 205.709 215.16C205.283 214.493 205.063 213.7 205.049 212.78H207.289C207.303 213.527 207.563 214.16 208.069 214.68C208.576 215.2 209.289 215.46 210.209 215.46C211.023 215.46 211.656 215.267 212.109 214.88C212.576 214.48 212.809 213.973 212.809 213.36C212.809 212.867 212.696 212.467 212.469 212.16C212.256 211.853 211.956 211.6 211.569 211.4C211.196 211.2 210.763 211.02 210.269 210.86C209.776 210.7 209.256 210.527 208.709 210.34C207.629 209.98 206.816 209.513 206.269 208.94C205.736 208.367 205.469 207.613 205.469 206.68C205.456 205.893 205.636 205.207 206.009 204.62C206.396 204.033 206.929 203.58 207.609 203.26C208.303 202.927 209.109 202.76 210.029 202.76C210.936 202.76 211.729 202.927 212.409 203.26C213.103 203.593 213.643 204.06 214.029 204.66C214.416 205.247 214.616 205.933 214.629 206.72H212.389C212.389 206.36 212.296 206.02 212.109 205.7C211.923 205.367 211.649 205.093 211.289 204.88C210.929 204.667 210.489 204.56 209.969 204.56C209.303 204.547 208.749 204.713 208.309 205.06C207.883 205.407 207.669 205.887 207.669 206.5C207.669 207.047 207.829 207.467 208.149 207.76C208.469 208.053 208.909 208.3 209.469 208.5C210.029 208.687 210.669 208.907 211.389 209.16C212.083 209.387 212.703 209.66 213.249 209.98C213.796 210.3 214.229 210.72 214.549 211.24C214.883 211.76 215.049 212.42 215.049 213.22C215.049 213.927 214.869 214.587 214.509 215.2C214.149 215.8 213.609 216.293 212.889 216.68C212.169 217.053 211.283 217.24 210.229 217.24ZM218.487 205.2C218.087 205.2 217.754 205.08 217.487 204.84C217.234 204.587 217.107 204.273 217.107 203.9C217.107 203.527 217.234 203.22 217.487 202.98C217.754 202.727 218.087 202.6 218.487 202.6C218.887 202.6 219.214 202.727 219.467 202.98C219.734 203.22 219.867 203.527 219.867 203.9C219.867 204.273 219.734 204.587 219.467 204.84C219.214 205.08 218.887 205.2 218.487 205.2ZM217.427 217V207.08H219.547V217H217.427ZM226.406 213.96C225.886 213.96 225.406 213.9 224.966 213.78L224.106 214.62C224.253 214.713 224.433 214.793 224.646 214.86C224.859 214.927 225.159 214.987 225.546 215.04C225.933 215.093 226.459 215.147 227.126 215.2C228.446 215.32 229.399 215.64 229.986 216.16C230.573 216.667 230.866 217.347 230.866 218.2C230.866 218.787 230.706 219.34 230.386 219.86C230.079 220.393 229.593 220.82 228.926 221.14C228.273 221.473 227.433 221.64 226.406 221.64C225.019 221.64 223.893 221.373 223.026 220.84C222.173 220.32 221.746 219.527 221.746 218.46C221.746 218.047 221.853 217.633 222.066 217.22C222.293 216.82 222.646 216.44 223.126 216.08C222.846 215.96 222.599 215.833 222.386 215.7C222.186 215.553 222.006 215.407 221.846 215.26V214.78L223.566 213.02C222.793 212.353 222.406 211.48 222.406 210.4C222.406 209.747 222.559 209.153 222.866 208.62C223.186 208.073 223.646 207.64 224.246 207.32C224.846 207 225.566 206.84 226.406 206.84C226.966 206.84 227.486 206.92 227.966 207.08H231.666V208.48L229.906 208.58C230.226 209.127 230.386 209.733 230.386 210.4C230.386 211.067 230.226 211.667 229.906 212.2C229.599 212.733 229.146 213.16 228.546 213.48C227.959 213.8 227.246 213.96 226.406 213.96ZM226.406 212.3C227.019 212.3 227.513 212.14 227.886 211.82C228.273 211.487 228.466 211.02 228.466 210.42C228.466 209.807 228.273 209.34 227.886 209.02C227.513 208.7 227.019 208.54 226.406 208.54C225.779 208.54 225.273 208.7 224.886 209.02C224.513 209.34 224.326 209.807 224.326 210.42C224.326 211.02 224.513 211.487 224.886 211.82C225.273 212.14 225.779 212.3 226.406 212.3ZM223.746 218.26C223.746 218.833 223.999 219.26 224.506 219.54C225.013 219.833 225.646 219.98 226.406 219.98C227.139 219.98 227.733 219.82 228.186 219.5C228.639 219.193 228.866 218.78 228.866 218.26C228.866 217.873 228.713 217.54 228.406 217.26C228.099 216.993 227.519 216.827 226.666 216.76C226.026 216.72 225.459 216.66 224.966 216.58C224.499 216.833 224.179 217.107 224.006 217.4C223.833 217.693 223.746 217.98 223.746 218.26ZM233.557 217V207.08H235.437L235.597 208.82C235.903 208.207 236.35 207.727 236.937 207.38C237.537 207.02 238.223 206.84 238.997 206.84C240.197 206.84 241.137 207.213 241.817 207.96C242.51 208.707 242.857 209.82 242.857 211.3V217H240.757V211.52C240.757 209.6 239.97 208.64 238.397 208.64C237.61 208.64 236.957 208.92 236.437 209.48C235.93 210.04 235.677 210.84 235.677 211.88V217H233.557ZM250.473 217V203H252.593V217H250.473ZM255.354 217V207.08H257.234L257.394 208.82C257.7 208.207 258.147 207.727 258.734 207.38C259.334 207.02 260.02 206.84 260.794 206.84C261.994 206.84 262.934 207.213 263.614 207.96C264.307 208.707 264.654 209.82 264.654 211.3V217H262.554V211.52C262.554 209.6 261.767 208.64 260.194 208.64C259.407 208.64 258.754 208.92 258.234 209.48C257.727 210.04 257.474 210.84 257.474 211.88V217H255.354Z" fill="white"/>
<path d="M59.5356 273V261.8H63.4716C64.2609 261.8 64.9116 261.928 65.4236 262.184C65.9462 262.429 66.3356 262.771 66.5916 263.208C66.8476 263.635 66.9756 264.115 66.9756 264.648C66.9756 265.373 66.7782 265.944 66.3836 266.36C65.9996 266.776 65.5356 267.064 64.9916 267.224C65.4076 267.299 65.7862 267.464 66.1276 267.72C66.4689 267.976 66.7356 268.296 66.9276 268.68C67.1302 269.064 67.2316 269.485 67.2316 269.944C67.2316 270.509 67.0929 271.027 66.8156 271.496C66.5382 271.955 66.1276 272.323 65.5836 272.6C65.0396 272.867 64.3782 273 63.5996 273H59.5356ZM60.8796 266.696H63.3756C64.0902 266.696 64.6396 266.531 65.0236 266.2C65.4076 265.859 65.5996 265.389 65.5996 264.792C65.5996 264.227 65.4076 263.773 65.0236 263.432C64.6502 263.091 64.0849 262.92 63.3276 262.92H60.8796V266.696ZM60.8796 271.88H63.4556C64.2236 271.88 64.8156 271.704 65.2316 271.352C65.6476 270.989 65.8556 270.488 65.8556 269.848C65.8556 269.219 65.6369 268.717 65.1996 268.344C64.7622 267.96 64.1702 267.768 63.4236 267.768H60.8796V271.88ZM69.9446 276.52L71.9126 272.232H71.4486L68.2966 265.064H69.7526L72.3766 271.24L75.1606 265.064H76.5526L71.3526 276.52H69.9446ZM85.2456 273.192C84.2962 273.192 83.5069 272.952 82.8776 272.472C82.2482 271.992 81.8802 271.341 81.7736 270.52H83.1496C83.2349 270.936 83.4536 271.299 83.8056 271.608C84.1682 271.907 84.6536 272.056 85.2616 272.056C85.8269 272.056 86.2429 271.939 86.5096 271.704C86.7762 271.459 86.9096 271.171 86.9096 270.84C86.9096 270.36 86.7336 270.04 86.3816 269.88C86.0402 269.72 85.5549 269.576 84.9256 269.448C84.4989 269.363 84.0722 269.24 83.6456 269.08C83.2189 268.92 82.8616 268.696 82.5736 268.408C82.2856 268.109 82.1416 267.72 82.1416 267.24C82.1416 266.547 82.3976 265.981 82.9096 265.544C83.4322 265.096 84.1362 264.872 85.0216 264.872C85.8642 264.872 86.5522 265.085 87.0856 265.512C87.6296 265.928 87.9442 266.525 88.0296 267.304H86.7016C86.6482 266.899 86.4722 266.584 86.1736 266.36C85.8856 266.125 85.4962 266.008 85.0056 266.008C84.5256 266.008 84.1522 266.109 83.8856 266.312C83.6296 266.515 83.5016 266.781 83.5016 267.112C83.5016 267.432 83.6669 267.683 83.9976 267.864C84.3389 268.045 84.7976 268.2 85.3736 268.328C85.8642 268.435 86.3282 268.568 86.7656 268.728C87.2136 268.877 87.5762 269.107 87.8536 269.416C88.1416 269.715 88.2856 270.152 88.2856 270.728C88.2962 271.443 88.0242 272.035 87.4696 272.504C86.9256 272.963 86.1842 273.192 85.2456 273.192ZM91.0216 263.304C90.7549 263.304 90.5309 263.219 90.3496 263.048C90.1789 262.867 90.0936 262.643 90.0936 262.376C90.0936 262.12 90.1789 261.907 90.3496 261.736C90.5309 261.565 90.7549 261.48 91.0216 261.48C91.2776 261.48 91.4962 261.565 91.6776 261.736C91.8589 261.907 91.9496 262.12 91.9496 262.376C91.9496 262.643 91.8589 262.867 91.6776 263.048C91.4962 263.219 91.2776 263.304 91.0216 263.304ZM90.3496 273V265.064H91.6936V273H90.3496ZM97.1697 270.504C96.7217 270.504 96.311 270.445 95.9377 270.328L95.1377 271.08C95.255 271.165 95.399 271.24 95.5697 271.304C95.751 271.357 96.007 271.411 96.3377 271.464C96.6684 271.507 97.1324 271.555 97.7297 271.608C98.7964 271.683 99.559 271.928 100.018 272.344C100.476 272.76 100.706 273.304 100.706 273.976C100.706 274.435 100.578 274.872 100.322 275.288C100.076 275.704 99.6924 276.045 99.1697 276.312C98.6577 276.579 97.9964 276.712 97.1857 276.712C96.471 276.712 95.8364 276.616 95.2817 276.424C94.727 276.243 94.295 275.96 93.9857 275.576C93.6764 275.203 93.5217 274.728 93.5217 274.152C93.5217 273.853 93.6017 273.528 93.7617 273.176C93.9217 272.835 94.2204 272.509 94.6577 272.2C94.423 272.104 94.2204 272.003 94.0497 271.896C93.8897 271.779 93.7404 271.651 93.6017 271.512V271.144L94.9617 269.8C94.3324 269.267 94.0177 268.563 94.0177 267.688C94.0177 267.165 94.1404 266.691 94.3857 266.264C94.631 265.837 94.9884 265.501 95.4577 265.256C95.927 265 96.4977 264.872 97.1697 264.872C97.6284 264.872 98.0444 264.936 98.4177 265.064H101.346V266.072L99.8577 266.136C100.167 266.584 100.322 267.101 100.322 267.688C100.322 268.211 100.194 268.685 99.9377 269.112C99.6924 269.539 99.335 269.88 98.8657 270.136C98.407 270.381 97.8417 270.504 97.1697 270.504ZM97.1697 269.4C97.735 269.4 98.183 269.256 98.5137 268.968C98.855 268.669 99.0257 268.243 99.0257 267.688C99.0257 267.144 98.855 266.728 98.5137 266.44C98.183 266.141 97.735 265.992 97.1697 265.992C96.5937 265.992 96.135 266.141 95.7937 266.44C95.463 266.728 95.2977 267.144 95.2977 267.688C95.2977 268.243 95.463 268.669 95.7937 268.968C96.135 269.256 96.5937 269.4 97.1697 269.4ZM94.8337 274.024C94.8337 274.557 95.0577 274.952 95.5057 275.208C95.9537 275.475 96.5137 275.608 97.1857 275.608C97.847 275.608 98.375 275.464 98.7697 275.176C99.175 274.888 99.3777 274.504 99.3777 274.024C99.3777 273.683 99.239 273.384 98.9617 273.128C98.6844 272.883 98.1724 272.739 97.4257 272.696C96.839 272.653 96.3324 272.6 95.9057 272.536C95.4684 272.771 95.1804 273.021 95.0417 273.288C94.903 273.565 94.8337 273.811 94.8337 274.024ZM102.862 273V265.064H104.078L104.158 266.488C104.414 265.987 104.782 265.592 105.262 265.304C105.742 265.016 106.286 264.872 106.894 264.872C107.832 264.872 108.579 265.16 109.134 265.736C109.699 266.301 109.982 267.176 109.982 268.36V273H108.638V268.504C108.638 266.851 107.955 266.024 106.59 266.024C105.907 266.024 105.336 266.275 104.878 266.776C104.43 267.267 104.206 267.971 104.206 268.888V273H102.862ZM112.834 263.304C112.567 263.304 112.343 263.219 112.162 263.048C111.991 262.867 111.906 262.643 111.906 262.376C111.906 262.12 111.991 261.907 112.162 261.736C112.343 261.565 112.567 261.48 112.834 261.48C113.09 261.48 113.309 261.565 113.49 261.736C113.671 261.907 113.762 262.12 113.762 262.376C113.762 262.643 113.671 262.867 113.49 263.048C113.309 263.219 113.09 263.304 112.834 263.304ZM112.162 273V265.064H113.506V273H112.162ZM115.846 273V265.064H117.062L117.142 266.488C117.398 265.987 117.766 265.592 118.246 265.304C118.726 265.016 119.27 264.872 119.878 264.872C120.817 264.872 121.564 265.16 122.118 265.736C122.684 266.301 122.966 267.176 122.966 268.36V273H121.622V268.504C121.622 266.851 120.94 266.024 119.574 266.024C118.892 266.024 118.321 266.275 117.862 266.776C117.414 267.267 117.19 267.971 117.19 268.888V273H115.846ZM128.138 270.504C127.69 270.504 127.28 270.445 126.906 270.328L126.106 271.08C126.224 271.165 126.368 271.24 126.538 271.304C126.72 271.357 126.976 271.411 127.306 271.464C127.637 271.507 128.101 271.555 128.698 271.608C129.765 271.683 130.528 271.928 130.986 272.344C131.445 272.76 131.674 273.304 131.674 273.976C131.674 274.435 131.546 274.872 131.29 275.288C131.045 275.704 130.661 276.045 130.138 276.312C129.626 276.579 128.965 276.712 128.154 276.712C127.44 276.712 126.805 276.616 126.25 276.424C125.696 276.243 125.264 275.96 124.954 275.576C124.645 275.203 124.49 274.728 124.49 274.152C124.49 273.853 124.57 273.528 124.73 273.176C124.89 272.835 125.189 272.509 125.626 272.2C125.392 272.104 125.189 272.003 125.018 271.896C124.858 271.779 124.709 271.651 124.57 271.512V271.144L125.93 269.8C125.301 269.267 124.986 268.563 124.986 267.688C124.986 267.165 125.109 266.691 125.354 266.264C125.6 265.837 125.957 265.501 126.426 265.256C126.896 265 127.466 264.872 128.138 264.872C128.597 264.872 129.013 264.936 129.386 265.064H132.314V266.072L130.826 266.136C131.136 266.584 131.29 267.101 131.29 267.688C131.29 268.211 131.162 268.685 130.906 269.112C130.661 269.539 130.304 269.88 129.834 270.136C129.376 270.381 128.81 270.504 128.138 270.504ZM128.138 269.4C128.704 269.4 129.152 269.256 129.482 268.968C129.824 268.669 129.994 268.243 129.994 267.688C129.994 267.144 129.824 266.728 129.482 266.44C129.152 266.141 128.704 265.992 128.138 265.992C127.562 265.992 127.104 266.141 126.762 266.44C126.432 266.728 126.266 267.144 126.266 267.688C126.266 268.243 126.432 268.669 126.762 268.968C127.104 269.256 127.562 269.4 128.138 269.4ZM125.802 274.024C125.802 274.557 126.026 274.952 126.474 275.208C126.922 275.475 127.482 275.608 128.154 275.608C128.816 275.608 129.344 275.464 129.738 275.176C130.144 274.888 130.346 274.504 130.346 274.024C130.346 273.683 130.208 273.384 129.93 273.128C129.653 272.883 129.141 272.739 128.394 272.696C127.808 272.653 127.301 272.6 126.874 272.536C126.437 272.771 126.149 273.021 126.01 273.288C125.872 273.565 125.802 273.811 125.802 274.024ZM145.009 265.064V273H143.793L143.713 271.576C143.457 272.077 143.089 272.472 142.609 272.76C142.129 273.048 141.585 273.192 140.977 273.192C140.038 273.192 139.286 272.909 138.721 272.344C138.166 271.768 137.889 270.888 137.889 269.704V265.064H139.233V269.56C139.233 271.213 139.916 272.04 141.281 272.04C141.964 272.04 142.529 271.795 142.977 271.304C143.436 270.803 143.665 270.093 143.665 269.176V265.064H145.009ZM147.221 276.52V265.064H148.437L148.565 266.376C148.821 265.992 149.184 265.645 149.653 265.336C150.133 265.027 150.741 264.872 151.477 264.872C152.267 264.872 152.955 265.053 153.541 265.416C154.128 265.779 154.581 266.275 154.901 266.904C155.232 267.533 155.397 268.248 155.397 269.048C155.397 269.848 155.232 270.563 154.901 271.192C154.581 271.811 154.123 272.301 153.525 272.664C152.939 273.016 152.251 273.192 151.461 273.192C150.811 273.192 150.229 273.059 149.717 272.792C149.216 272.525 148.832 272.152 148.565 271.672V276.52H147.221ZM151.317 272.024C151.851 272.024 152.32 271.901 152.725 271.656C153.131 271.4 153.451 271.048 153.685 270.6C153.92 270.152 154.037 269.629 154.037 269.032C154.037 268.435 153.92 267.912 153.685 267.464C153.451 267.016 153.131 266.669 152.725 266.424C152.32 266.168 151.851 266.04 151.317 266.04C150.784 266.04 150.315 266.168 149.909 266.424C149.504 266.669 149.184 267.016 148.949 267.464C148.715 267.912 148.597 268.435 148.597 269.032C148.597 269.629 148.715 270.152 148.949 270.6C149.184 271.048 149.504 271.4 149.909 271.656C150.315 271.901 150.784 272.024 151.317 272.024ZM156.196 274.904L157.124 271.368H158.516L157.124 274.904H156.196ZM165.21 276.52L167.178 272.232H166.714L163.562 265.064H165.018L167.642 271.24L170.426 265.064H171.818L166.618 276.52H165.21ZM176.103 273.192C175.356 273.192 174.684 273.021 174.087 272.68C173.489 272.339 173.015 271.859 172.663 271.24C172.321 270.611 172.151 269.875 172.151 269.032C172.151 268.189 172.327 267.459 172.679 266.84C173.031 266.211 173.505 265.725 174.103 265.384C174.711 265.043 175.388 264.872 176.135 264.872C176.881 264.872 177.553 265.043 178.151 265.384C178.748 265.725 179.217 266.211 179.559 266.84C179.911 267.459 180.087 268.189 180.087 269.032C180.087 269.875 179.911 270.611 179.559 271.24C179.207 271.859 178.727 272.339 178.119 272.68C177.521 273.021 176.849 273.192 176.103 273.192ZM176.103 272.04C176.561 272.04 176.988 271.928 177.383 271.704C177.777 271.48 178.097 271.144 178.343 270.696C178.588 270.248 178.711 269.693 178.711 269.032C178.711 268.371 178.588 267.816 178.343 267.368C178.108 266.92 177.793 266.584 177.399 266.36C177.004 266.136 176.583 266.024 176.135 266.024C175.676 266.024 175.249 266.136 174.855 266.36C174.46 266.584 174.14 266.92 173.895 267.368C173.649 267.816 173.527 268.371 173.527 269.032C173.527 269.693 173.649 270.248 173.895 270.696C174.14 271.144 174.455 271.48 174.839 271.704C175.233 271.928 175.655 272.04 176.103 272.04ZM188.9 265.064V273H187.684L187.604 271.576C187.348 272.077 186.98 272.472 186.5 272.76C186.02 273.048 185.476 273.192 184.868 273.192C183.929 273.192 183.177 272.909 182.612 272.344C182.057 271.768 181.78 270.888 181.78 269.704V265.064H183.124V269.56C183.124 271.213 183.806 272.04 185.172 272.04C185.854 272.04 186.42 271.795 186.868 271.304C187.326 270.803 187.556 270.093 187.556 269.176V265.064H188.9ZM197.986 273.192C197.325 273.192 196.776 273.08 196.338 272.856C195.901 272.632 195.576 272.333 195.362 271.96C195.149 271.587 195.042 271.181 195.042 270.744C195.042 269.933 195.352 269.309 195.97 268.872C196.589 268.435 197.432 268.216 198.498 268.216H200.642V268.12C200.642 267.427 200.461 266.904 200.098 266.552C199.736 266.189 199.25 266.008 198.642 266.008C198.12 266.008 197.666 266.141 197.282 266.408C196.909 266.664 196.674 267.043 196.578 267.544H195.202C195.256 266.968 195.448 266.483 195.778 266.088C196.12 265.693 196.541 265.395 197.042 265.192C197.544 264.979 198.077 264.872 198.642 264.872C199.752 264.872 200.584 265.171 201.138 265.768C201.704 266.355 201.986 267.139 201.986 268.12V273H200.786L200.706 271.576C200.482 272.024 200.152 272.408 199.714 272.728C199.288 273.037 198.712 273.192 197.986 273.192ZM198.194 272.056C198.706 272.056 199.144 271.923 199.506 271.656C199.88 271.389 200.162 271.043 200.354 270.616C200.546 270.189 200.642 269.741 200.642 269.272V269.256H198.61C197.821 269.256 197.261 269.395 196.93 269.672C196.61 269.939 196.45 270.275 196.45 270.68C196.45 271.096 196.6 271.432 196.898 271.688C197.208 271.933 197.64 272.056 198.194 272.056ZM207.138 270.504C206.69 270.504 206.28 270.445 205.906 270.328L205.106 271.08C205.224 271.165 205.368 271.24 205.538 271.304C205.72 271.357 205.976 271.411 206.306 271.464C206.637 271.507 207.101 271.555 207.698 271.608C208.765 271.683 209.528 271.928 209.986 272.344C210.445 272.76 210.674 273.304 210.674 273.976C210.674 274.435 210.546 274.872 210.29 275.288C210.045 275.704 209.661 276.045 209.138 276.312C208.626 276.579 207.965 276.712 207.154 276.712C206.44 276.712 205.805 276.616 205.25 276.424C204.696 276.243 204.264 275.96 203.954 275.576C203.645 275.203 203.49 274.728 203.49 274.152C203.49 273.853 203.57 273.528 203.73 273.176C203.89 272.835 204.189 272.509 204.626 272.2C204.392 272.104 204.189 272.003 204.018 271.896C203.858 271.779 203.709 271.651 203.57 271.512V271.144L204.93 269.8C204.301 269.267 203.986 268.563 203.986 267.688C203.986 267.165 204.109 266.691 204.354 266.264C204.6 265.837 204.957 265.501 205.426 265.256C205.896 265 206.466 264.872 207.138 264.872C207.597 264.872 208.013 264.936 208.386 265.064H211.314V266.072L209.826 266.136C210.136 266.584 210.29 267.101 210.29 267.688C210.29 268.211 210.162 268.685 209.906 269.112C209.661 269.539 209.304 269.88 208.834 270.136C208.376 270.381 207.81 270.504 207.138 270.504ZM207.138 269.4C207.704 269.4 208.152 269.256 208.482 268.968C208.824 268.669 208.994 268.243 208.994 267.688C208.994 267.144 208.824 266.728 208.482 266.44C208.152 266.141 207.704 265.992 207.138 265.992C206.562 265.992 206.104 266.141 205.762 266.44C205.432 266.728 205.266 267.144 205.266 267.688C205.266 268.243 205.432 268.669 205.762 268.968C206.104 269.256 206.562 269.4 207.138 269.4ZM204.802 274.024C204.802 274.557 205.026 274.952 205.474 275.208C205.922 275.475 206.482 275.608 207.154 275.608C207.816 275.608 208.344 275.464 208.738 275.176C209.144 274.888 209.346 274.504 209.346 274.024C209.346 273.683 209.208 273.384 208.93 273.128C208.653 272.883 208.141 272.739 207.394 272.696C206.808 272.653 206.301 272.6 205.874 272.536C205.437 272.771 205.149 273.021 205.01 273.288C204.872 273.565 204.802 273.811 204.802 274.024ZM212.831 273V265.064H214.047L214.159 266.584C214.404 266.061 214.777 265.645 215.279 265.336C215.78 265.027 216.399 264.872 217.135 264.872V266.28H216.767C216.297 266.28 215.865 266.365 215.471 266.536C215.076 266.696 214.761 266.973 214.527 267.368C214.292 267.763 214.175 268.307 214.175 269V273H212.831ZM221.914 273.192C221.157 273.192 220.485 273.021 219.898 272.68C219.312 272.328 218.848 271.843 218.506 271.224C218.176 270.605 218.01 269.875 218.01 269.032C218.01 268.2 218.176 267.475 218.506 266.856C218.837 266.227 219.296 265.741 219.882 265.4C220.48 265.048 221.168 264.872 221.946 264.872C222.714 264.872 223.376 265.048 223.93 265.4C224.496 265.741 224.928 266.195 225.226 266.76C225.525 267.325 225.674 267.933 225.674 268.584C225.674 268.701 225.669 268.819 225.658 268.936C225.658 269.053 225.658 269.187 225.658 269.336H219.338C219.37 269.944 219.509 270.451 219.754 270.856C220.01 271.251 220.325 271.549 220.698 271.752C221.082 271.955 221.488 272.056 221.914 272.056C222.469 272.056 222.933 271.928 223.306 271.672C223.68 271.416 223.952 271.069 224.122 270.632H225.45C225.237 271.368 224.826 271.981 224.218 272.472C223.621 272.952 222.853 273.192 221.914 273.192ZM221.914 266.008C221.274 266.008 220.704 266.205 220.202 266.6C219.712 266.984 219.429 267.549 219.354 268.296H224.346C224.314 267.581 224.069 267.021 223.61 266.616C223.152 266.211 222.586 266.008 221.914 266.008ZM231.024 273.192C230.266 273.192 229.594 273.021 229.008 272.68C228.421 272.328 227.957 271.843 227.616 271.224C227.285 270.605 227.12 269.875 227.12 269.032C227.12 268.2 227.285 267.475 227.616 266.856C227.946 266.227 228.405 265.741 228.992 265.4C229.589 265.048 230.277 264.872 231.056 264.872C231.824 264.872 232.485 265.048 233.04 265.4C233.605 265.741 234.037 266.195 234.336 266.76C234.634 267.325 234.784 267.933 234.784 268.584C234.784 268.701 234.778 268.819 234.768 268.936C234.768 269.053 234.768 269.187 234.768 269.336H228.448C228.48 269.944 228.618 270.451 228.864 270.856C229.12 271.251 229.434 271.549 229.808 271.752C230.192 271.955 230.597 272.056 231.024 272.056C231.578 272.056 232.042 271.928 232.416 271.672C232.789 271.416 233.061 271.069 233.232 270.632H234.56C234.346 271.368 233.936 271.981 233.328 272.472C232.73 272.952 231.962 273.192 231.024 273.192ZM231.024 266.008C230.384 266.008 229.813 266.205 229.312 266.6C228.821 266.984 228.538 267.549 228.464 268.296H233.456C233.424 267.581 233.178 267.021 232.72 266.616C232.261 266.211 231.696 266.008 231.024 266.008ZM243.935 273C243.21 273 242.639 272.824 242.223 272.472C241.807 272.12 241.599 271.485 241.599 270.568V266.2H240.223V265.064H241.599L241.775 263.16H242.943V265.064H245.279V266.2H242.943V270.568C242.943 271.069 243.045 271.411 243.247 271.592C243.45 271.763 243.807 271.848 244.319 271.848H245.151V273H243.935ZM250.384 273.192C249.637 273.192 248.965 273.021 248.368 272.68C247.771 272.339 247.296 271.859 246.944 271.24C246.603 270.611 246.432 269.875 246.432 269.032C246.432 268.189 246.608 267.459 246.96 266.84C247.312 266.211 247.787 265.725 248.384 265.384C248.992 265.043 249.669 264.872 250.416 264.872C251.163 264.872 251.835 265.043 252.432 265.384C253.029 265.725 253.499 266.211 253.84 266.84C254.192 267.459 254.368 268.189 254.368 269.032C254.368 269.875 254.192 270.611 253.84 271.24C253.488 271.859 253.008 272.339 252.4 272.68C251.803 273.021 251.131 273.192 250.384 273.192ZM250.384 272.04C250.843 272.04 251.269 271.928 251.664 271.704C252.059 271.48 252.379 271.144 252.624 270.696C252.869 270.248 252.992 269.693 252.992 269.032C252.992 268.371 252.869 267.816 252.624 267.368C252.389 266.92 252.075 266.584 251.68 266.36C251.285 266.136 250.864 266.024 250.416 266.024C249.957 266.024 249.531 266.136 249.136 266.36C248.741 266.584 248.421 266.92 248.176 267.368C247.931 267.816 247.808 268.371 247.808 269.032C247.808 269.693 247.931 270.248 248.176 270.696C248.421 271.144 248.736 271.48 249.12 271.704C249.515 271.928 249.936 272.04 250.384 272.04ZM263.607 273C262.882 273 262.311 272.824 261.895 272.472C261.479 272.12 261.271 271.485 261.271 270.568V266.2H259.895V265.064H261.271L261.447 263.16H262.615V265.064H264.951V266.2H262.615V270.568C262.615 271.069 262.717 271.411 262.919 271.592C263.122 271.763 263.479 271.848 263.991 271.848H264.823V273H263.607ZM266.659 273V261.48H268.003V266.424C268.269 265.933 268.648 265.555 269.139 265.288C269.629 265.011 270.163 264.872 270.739 264.872C271.656 264.872 272.392 265.16 272.947 265.736C273.501 266.301 273.779 267.176 273.779 268.36V273H272.451V268.504C272.451 266.851 271.784 266.024 270.451 266.024C269.757 266.024 269.176 266.275 268.707 266.776C268.237 267.267 268.003 267.971 268.003 268.888V273H266.659ZM279.383 273.192C278.626 273.192 277.954 273.021 277.367 272.68C276.78 272.328 276.316 271.843 275.975 271.224C275.644 270.605 275.479 269.875 275.479 269.032C275.479 268.2 275.644 267.475 275.975 266.856C276.306 266.227 276.764 265.741 277.351 265.4C277.948 265.048 278.636 264.872 279.415 264.872C280.183 264.872 280.844 265.048 281.399 265.4C281.964 265.741 282.396 266.195 282.695 266.76C282.994 267.325 283.143 267.933 283.143 268.584C283.143 268.701 283.138 268.819 283.127 268.936C283.127 269.053 283.127 269.187 283.127 269.336H276.807C276.839 269.944 276.978 270.451 277.223 270.856C277.479 271.251 277.794 271.549 278.167 271.752C278.551 271.955 278.956 272.056 279.383 272.056C279.938 272.056 280.402 271.928 280.775 271.672C281.148 271.416 281.42 271.069 281.591 270.632H282.919C282.706 271.368 282.295 271.981 281.687 272.472C281.09 272.952 280.322 273.192 279.383 273.192ZM279.383 266.008C278.743 266.008 278.172 266.205 277.671 266.6C277.18 266.984 276.898 267.549 276.823 268.296H281.815C281.783 267.581 281.538 267.021 281.079 266.616C280.62 266.211 280.055 266.008 279.383 266.008ZM291.863 273V262.904H288.519V261.8H296.551V262.904H293.207V273H291.863ZM300.242 273.192C299.485 273.192 298.813 273.021 298.226 272.68C297.64 272.328 297.176 271.843 296.834 271.224C296.504 270.605 296.338 269.875 296.338 269.032C296.338 268.2 296.504 267.475 296.834 266.856C297.165 266.227 297.624 265.741 298.21 265.4C298.808 265.048 299.496 264.872 300.274 264.872C301.042 264.872 301.704 265.048 302.258 265.4C302.824 265.741 303.256 266.195 303.554 266.76C303.853 267.325 304.002 267.933 304.002 268.584C304.002 268.701 303.997 268.819 303.986 268.936C303.986 269.053 303.986 269.187 303.986 269.336H297.666C297.698 269.944 297.837 270.451 298.082 270.856C298.338 271.251 298.653 271.549 299.026 271.752C299.41 271.955 299.816 272.056 300.242 272.056C300.797 272.056 301.261 271.928 301.634 271.672C302.008 271.416 302.28 271.069 302.45 270.632H303.778C303.565 271.368 303.154 271.981 302.546 272.472C301.949 272.952 301.181 273.192 300.242 273.192ZM300.242 266.008C299.602 266.008 299.032 266.205 298.53 266.6C298.04 266.984 297.757 267.549 297.682 268.296H302.674C302.642 267.581 302.397 267.021 301.938 266.616C301.48 266.211 300.914 266.008 300.242 266.008ZM305.784 273V265.064H307L307.112 266.584C307.357 266.061 307.73 265.645 308.232 265.336C308.733 265.027 309.352 264.872 310.088 264.872V266.28H309.72C309.25 266.28 308.818 266.365 308.424 266.536C308.029 266.696 307.714 266.973 307.48 267.368C307.245 267.763 307.128 268.307 307.128 269V273H305.784ZM311.596 273V265.064H312.812L312.908 266.216C313.164 265.789 313.506 265.459 313.932 265.224C314.359 264.989 314.839 264.872 315.372 264.872C316.002 264.872 316.54 265 316.988 265.256C317.447 265.512 317.799 265.901 318.044 266.424C318.322 265.944 318.7 265.565 319.18 265.288C319.671 265.011 320.199 264.872 320.764 264.872C321.714 264.872 322.471 265.16 323.036 265.736C323.602 266.301 323.884 267.176 323.884 268.36V273H322.556V268.504C322.556 267.683 322.391 267.064 322.06 266.648C321.73 266.232 321.255 266.024 320.636 266.024C319.996 266.024 319.463 266.275 319.036 266.776C318.62 267.267 318.412 267.971 318.412 268.888V273H317.068V268.504C317.068 267.683 316.903 267.064 316.572 266.648C316.242 266.232 315.767 266.024 315.148 266.024C314.519 266.024 313.991 266.275 313.564 266.776C313.148 267.267 312.94 267.971 312.94 268.888V273H311.596ZM328.949 273.192C327.999 273.192 327.21 272.952 326.581 272.472C325.951 271.992 325.583 271.341 325.477 270.52H326.853C326.938 270.936 327.157 271.299 327.509 271.608C327.871 271.907 328.357 272.056 328.965 272.056C329.53 272.056 329.946 271.939 330.213 271.704C330.479 271.459 330.613 271.171 330.613 270.84C330.613 270.36 330.437 270.04 330.085 269.88C329.743 269.72 329.258 269.576 328.629 269.448C328.202 269.363 327.775 269.24 327.349 269.08C326.922 268.92 326.565 268.696 326.277 268.408C325.989 268.109 325.845 267.72 325.845 267.24C325.845 266.547 326.101 265.981 326.613 265.544C327.135 265.096 327.839 264.872 328.725 264.872C329.567 264.872 330.255 265.085 330.789 265.512C331.333 265.928 331.647 266.525 331.733 267.304H330.405C330.351 266.899 330.175 266.584 329.877 266.36C329.589 266.125 329.199 266.008 328.709 266.008C328.229 266.008 327.855 266.109 327.589 266.312C327.333 266.515 327.205 266.781 327.205 267.112C327.205 267.432 327.37 267.683 327.701 267.864C328.042 268.045 328.501 268.2 329.077 268.328C329.567 268.435 330.031 268.568 330.469 268.728C330.917 268.877 331.279 269.107 331.557 269.416C331.845 269.715 331.989 270.152 331.989 270.728C331.999 271.443 331.727 272.035 331.173 272.504C330.629 272.963 329.887 273.192 328.949 273.192ZM341.759 273.192C341.012 273.192 340.34 273.021 339.743 272.68C339.146 272.339 338.671 271.859 338.319 271.24C337.978 270.611 337.807 269.875 337.807 269.032C337.807 268.189 337.983 267.459 338.335 266.84C338.687 266.211 339.162 265.725 339.759 265.384C340.367 265.043 341.044 264.872 341.791 264.872C342.538 264.872 343.21 265.043 343.807 265.384C344.404 265.725 344.874 266.211 345.215 266.84C345.567 267.459 345.743 268.189 345.743 269.032C345.743 269.875 345.567 270.611 345.215 271.24C344.863 271.859 344.383 272.339 343.775 272.68C343.178 273.021 342.506 273.192 341.759 273.192ZM341.759 272.04C342.218 272.04 342.644 271.928 343.039 271.704C343.434 271.48 343.754 271.144 343.999 270.696C344.244 270.248 344.367 269.693 344.367 269.032C344.367 268.371 344.244 267.816 343.999 267.368C343.764 266.92 343.45 266.584 343.055 266.36C342.66 266.136 342.239 266.024 341.791 266.024C341.332 266.024 340.906 266.136 340.511 266.36C340.116 266.584 339.796 266.92 339.551 267.368C339.306 267.816 339.183 268.371 339.183 269.032C339.183 269.693 339.306 270.248 339.551 270.696C339.796 271.144 340.111 271.48 340.495 271.704C340.89 271.928 341.311 272.04 341.759 272.04ZM348.044 273V266.2H346.844V265.064H348.044V263.688C348.044 262.92 348.236 262.36 348.62 262.008C349.004 261.656 349.564 261.48 350.3 261.48H351.1V262.632H350.508C350.102 262.632 349.814 262.717 349.644 262.888C349.473 263.048 349.388 263.325 349.388 263.72V265.064H351.34V266.2H349.388V273H348.044ZM360.822 273.192C360.001 273.192 359.286 273.043 358.678 272.744C358.07 272.445 357.601 272.029 357.27 271.496C356.94 270.963 356.774 270.344 356.774 269.64H358.182C358.182 270.077 358.284 270.483 358.486 270.856C358.689 271.219 358.982 271.512 359.366 271.736C359.761 271.949 360.246 272.056 360.822 272.056C361.58 272.056 362.166 271.875 362.582 271.512C362.998 271.149 363.206 270.696 363.206 270.152C363.206 269.704 363.11 269.347 362.918 269.08C362.726 268.803 362.465 268.579 362.134 268.408C361.814 268.237 361.441 268.088 361.014 267.96C360.598 267.832 360.161 267.688 359.702 267.528C358.838 267.229 358.198 266.861 357.782 266.424C357.366 265.976 357.158 265.395 357.158 264.68C357.148 264.083 357.286 263.555 357.574 263.096C357.862 262.627 358.268 262.264 358.79 262.008C359.324 261.741 359.953 261.608 360.678 261.608C361.393 261.608 362.012 261.741 362.534 262.008C363.068 262.275 363.478 262.643 363.766 263.112C364.065 263.581 364.22 264.115 364.23 264.712H362.822C362.822 264.403 362.742 264.099 362.582 263.8C362.422 263.491 362.177 263.24 361.846 263.048C361.526 262.856 361.121 262.76 360.63 262.76C360.022 262.749 359.521 262.904 359.126 263.224C358.742 263.544 358.55 263.987 358.55 264.552C358.55 265.032 358.684 265.4 358.95 265.656C359.228 265.912 359.612 266.125 360.102 266.296C360.593 266.456 361.158 266.643 361.798 266.856C362.332 267.048 362.812 267.272 363.238 267.528C363.665 267.784 363.996 268.115 364.23 268.52C364.476 268.925 364.598 269.443 364.598 270.072C364.598 270.605 364.46 271.112 364.182 271.592C363.905 272.061 363.484 272.445 362.918 272.744C362.364 273.043 361.665 273.192 360.822 273.192ZM369.992 273.192C369.235 273.192 368.563 273.021 367.976 272.68C367.39 272.328 366.926 271.843 366.584 271.224C366.254 270.605 366.088 269.875 366.088 269.032C366.088 268.2 366.254 267.475 366.584 266.856C366.915 266.227 367.374 265.741 367.96 265.4C368.558 265.048 369.246 264.872 370.024 264.872C370.792 264.872 371.454 265.048 372.008 265.4C372.574 265.741 373.006 266.195 373.304 266.76C373.603 267.325 373.752 267.933 373.752 268.584C373.752 268.701 373.747 268.819 373.736 268.936C373.736 269.053 373.736 269.187 373.736 269.336H367.416C367.448 269.944 367.587 270.451 367.832 270.856C368.088 271.251 368.403 271.549 368.776 271.752C369.16 271.955 369.566 272.056 369.992 272.056C370.547 272.056 371.011 271.928 371.384 271.672C371.758 271.416 372.03 271.069 372.2 270.632H373.528C373.315 271.368 372.904 271.981 372.296 272.472C371.699 272.952 370.931 273.192 369.992 273.192ZM369.992 266.008C369.352 266.008 368.782 266.205 368.28 266.6C367.79 266.984 367.507 267.549 367.432 268.296H372.424C372.392 267.581 372.147 267.021 371.688 266.616C371.23 266.211 370.664 266.008 369.992 266.008ZM375.534 273V265.064H376.75L376.862 266.584C377.107 266.061 377.48 265.645 377.982 265.336C378.483 265.027 379.102 264.872 379.838 264.872V266.28H379.47C379 266.28 378.568 266.365 378.174 266.536C377.779 266.696 377.464 266.973 377.23 267.368C376.995 267.763 376.878 268.307 376.878 269V273H375.534ZM383.634 273L380.626 265.064H382.034L384.418 271.704L386.818 265.064H388.194L385.186 273H383.634ZM390.506 263.304C390.239 263.304 390.015 263.219 389.834 263.048C389.663 262.867 389.578 262.643 389.578 262.376C389.578 262.12 389.663 261.907 389.834 261.736C390.015 261.565 390.239 261.48 390.506 261.48C390.762 261.48 390.981 261.565 391.162 261.736C391.343 261.907 391.434 262.12 391.434 262.376C391.434 262.643 391.343 262.867 391.162 263.048C390.981 263.219 390.762 263.304 390.506 263.304ZM389.834 273V265.064H391.178V273H389.834ZM397.166 273.192C396.409 273.192 395.726 273.021 395.118 272.68C394.521 272.328 394.046 271.843 393.694 271.224C393.353 270.595 393.182 269.864 393.182 269.032C393.182 268.2 393.353 267.475 393.694 266.856C394.046 266.227 394.521 265.741 395.118 265.4C395.726 265.048 396.409 264.872 397.166 264.872C398.105 264.872 398.894 265.117 399.534 265.608C400.185 266.099 400.595 266.755 400.766 267.576H399.39C399.283 267.085 399.022 266.707 398.606 266.44C398.19 266.163 397.705 266.024 397.15 266.024C396.702 266.024 396.281 266.136 395.886 266.36C395.491 266.584 395.171 266.92 394.926 267.368C394.681 267.816 394.558 268.371 394.558 269.032C394.558 269.693 394.681 270.248 394.926 270.696C395.171 271.144 395.491 271.485 395.886 271.72C396.281 271.944 396.702 272.056 397.15 272.056C397.705 272.056 398.19 271.923 398.606 271.656C399.022 271.379 399.283 270.989 399.39 270.488H400.766C400.606 271.288 400.201 271.939 399.55 272.44C398.899 272.941 398.105 273.192 397.166 273.192ZM406.211 273.192C405.454 273.192 404.782 273.021 404.195 272.68C403.608 272.328 403.144 271.843 402.803 271.224C402.472 270.605 402.307 269.875 402.307 269.032C402.307 268.2 402.472 267.475 402.803 266.856C403.134 266.227 403.592 265.741 404.179 265.4C404.776 265.048 405.464 264.872 406.243 264.872C407.011 264.872 407.672 265.048 408.227 265.4C408.792 265.741 409.224 266.195 409.523 266.76C409.822 267.325 409.971 267.933 409.971 268.584C409.971 268.701 409.966 268.819 409.955 268.936C409.955 269.053 409.955 269.187 409.955 269.336H403.635C403.667 269.944 403.806 270.451 404.051 270.856C404.307 271.251 404.622 271.549 404.995 271.752C405.379 271.955 405.784 272.056 406.211 272.056C406.766 272.056 407.23 271.928 407.603 271.672C407.976 271.416 408.248 271.069 408.419 270.632H409.747C409.534 271.368 409.123 271.981 408.515 272.472C407.918 272.952 407.15 273.192 406.211 273.192ZM406.211 266.008C405.571 266.008 405 266.205 404.499 266.6C404.008 266.984 403.726 267.549 403.651 268.296H408.643C408.611 267.581 408.366 267.021 407.907 266.616C407.448 266.211 406.883 266.008 406.211 266.008Z" fill="#151439" fill-opacity="0.4"/>
<rect x="1" y="91" width="468" height="58" rx="29" stroke="#EBEAED" stroke-width="2"/>
<path d="M28.98 128V122.84L24.34 114H26.74L30.04 120.76L33.32 114H35.7L31.1 122.84V128H28.98ZM40.2534 128.24C39.3068 128.24 38.4534 128.027 37.6934 127.6C36.9468 127.16 36.3534 126.553 35.9134 125.78C35.4734 124.993 35.2534 124.08 35.2534 123.04C35.2534 122 35.4734 121.093 35.9134 120.32C36.3668 119.533 36.9734 118.927 37.7334 118.5C38.4934 118.06 39.3401 117.84 40.2734 117.84C41.2201 117.84 42.0668 118.06 42.8134 118.5C43.5734 118.927 44.1734 119.533 44.6134 120.32C45.0668 121.093 45.2934 122 45.2934 123.04C45.2934 124.08 45.0668 124.993 44.6134 125.78C44.1734 126.553 43.5734 127.16 42.8134 127.6C42.0534 128.027 41.2001 128.24 40.2534 128.24ZM40.2534 126.42C40.7601 126.42 41.2268 126.293 41.6534 126.04C42.0934 125.787 42.4468 125.413 42.7134 124.92C42.9801 124.413 43.1134 123.787 43.1134 123.04C43.1134 122.293 42.9801 121.673 42.7134 121.18C42.4601 120.673 42.1134 120.293 41.6734 120.04C41.2468 119.787 40.7801 119.66 40.2734 119.66C39.7668 119.66 39.2934 119.787 38.8534 120.04C38.4268 120.293 38.0801 120.673 37.8134 121.18C37.5468 121.673 37.4134 122.293 37.4134 123.04C37.4134 123.787 37.5468 124.413 37.8134 124.92C38.0801 125.413 38.4268 125.787 38.8534 126.04C39.2801 126.293 39.7468 126.42 40.2534 126.42ZM56.7061 118.08V128H54.8261L54.6661 126.26C54.3594 126.873 53.9061 127.36 53.3061 127.72C52.7194 128.067 52.0394 128.24 51.2661 128.24C50.0661 128.24 49.1194 127.867 48.4261 127.12C47.7461 126.373 47.4061 125.26 47.4061 123.78V118.08H49.5061V123.56C49.5061 125.48 50.2928 126.44 51.8661 126.44C52.6528 126.44 53.2994 126.16 53.8061 125.6C54.3261 125.04 54.5861 124.24 54.5861 123.2V118.08H56.7061ZM59.383 128V118.08H61.283L61.463 119.96C61.8096 119.307 62.2896 118.793 62.903 118.42C63.5296 118.033 64.283 117.84 65.163 117.84V120.06H64.583C63.9963 120.06 63.4696 120.16 63.003 120.36C62.5496 120.547 62.183 120.873 61.903 121.34C61.6363 121.793 61.503 122.427 61.503 123.24V128H59.383ZM72.0197 132.4V118.08H73.9197L74.1397 119.62C74.4597 119.153 74.8997 118.74 75.4597 118.38C76.0197 118.02 76.7397 117.84 77.6197 117.84C78.5797 117.84 79.4264 118.067 80.1597 118.52C80.893 118.973 81.4664 119.593 81.8797 120.38C82.3064 121.167 82.5197 122.06 82.5197 123.06C82.5197 124.06 82.3064 124.953 81.8797 125.74C81.4664 126.513 80.893 127.127 80.1597 127.58C79.4264 128.02 78.573 128.24 77.5997 128.24C76.8264 128.24 76.1397 128.087 75.5397 127.78C74.953 127.473 74.4864 127.04 74.1397 126.48V132.4H72.0197ZM77.2397 126.4C78.1464 126.4 78.893 126.093 79.4797 125.48C80.0664 124.853 80.3597 124.04 80.3597 123.04C80.3597 122.387 80.2264 121.807 79.9597 121.3C79.693 120.793 79.3264 120.4 78.8597 120.12C78.393 119.827 77.853 119.68 77.2397 119.68C76.333 119.68 75.5864 119.993 74.9997 120.62C74.4264 121.247 74.1397 122.053 74.1397 123.04C74.1397 124.04 74.4264 124.853 74.9997 125.48C75.5864 126.093 76.333 126.4 77.2397 126.4ZM88.1727 128.24C87.3327 128.24 86.6393 128.1 86.0927 127.82C85.546 127.54 85.1393 127.173 84.8727 126.72C84.606 126.253 84.4727 125.747 84.4727 125.2C84.4727 124.24 84.846 123.48 85.5927 122.92C86.3393 122.36 87.406 122.08 88.7927 122.08H91.3927V121.9C91.3927 121.127 91.1793 120.547 90.7527 120.16C90.3393 119.773 89.7993 119.58 89.1327 119.58C88.546 119.58 88.0327 119.727 87.5927 120.02C87.166 120.3 86.906 120.72 86.8127 121.28H84.6927C84.7593 120.56 84.9993 119.947 85.4127 119.44C85.8393 118.92 86.3727 118.527 87.0127 118.26C87.666 117.98 88.3793 117.84 89.1527 117.84C90.5393 117.84 91.6127 118.207 92.3727 118.94C93.1327 119.66 93.5127 120.647 93.5127 121.9V128H91.6727L91.4927 126.3C91.2127 126.847 90.806 127.307 90.2727 127.68C89.7393 128.053 89.0393 128.24 88.1727 128.24ZM88.5927 126.52C89.166 126.52 89.646 126.387 90.0327 126.12C90.4327 125.84 90.7393 125.473 90.9527 125.02C91.1793 124.567 91.3193 124.067 91.3727 123.52H89.0127C88.1727 123.52 87.5727 123.667 87.2127 123.96C86.866 124.253 86.6927 124.62 86.6927 125.06C86.6927 125.513 86.8593 125.873 87.1927 126.14C87.5393 126.393 88.006 126.52 88.5927 126.52ZM99.9445 128.24C98.6912 128.24 97.6579 127.933 96.8445 127.32C96.0312 126.707 95.5645 125.893 95.4445 124.88H97.5845C97.6912 125.333 97.9445 125.727 98.3445 126.06C98.7445 126.38 99.2712 126.54 99.9245 126.54C100.565 126.54 101.031 126.407 101.325 126.14C101.618 125.873 101.765 125.567 101.765 125.22C101.765 124.713 101.558 124.373 101.145 124.2C100.745 124.013 100.185 123.847 99.4645 123.7C98.9045 123.58 98.3445 123.42 97.7845 123.22C97.2379 123.02 96.7779 122.74 96.4045 122.38C96.0445 122.007 95.8645 121.507 95.8645 120.88C95.8645 120.013 96.1979 119.293 96.8645 118.72C97.5312 118.133 98.4645 117.84 99.6645 117.84C100.771 117.84 101.665 118.107 102.345 118.64C103.038 119.173 103.445 119.927 103.565 120.9H101.525C101.458 120.473 101.258 120.14 100.925 119.9C100.605 119.66 100.171 119.54 99.6245 119.54C99.0912 119.54 98.6779 119.653 98.3845 119.88C98.0912 120.093 97.9445 120.373 97.9445 120.72C97.9445 121.067 98.1445 121.34 98.5445 121.54C98.9579 121.74 99.4979 121.92 100.165 122.08C100.831 122.227 101.445 122.4 102.005 122.6C102.578 122.787 103.038 123.067 103.385 123.44C103.731 123.813 103.905 124.36 103.905 125.08C103.918 125.987 103.565 126.74 102.845 127.34C102.138 127.94 101.171 128.24 99.9445 128.24ZM110.179 128.24C108.926 128.24 107.892 127.933 107.079 127.32C106.266 126.707 105.799 125.893 105.679 124.88H107.819C107.926 125.333 108.179 125.727 108.579 126.06C108.979 126.38 109.506 126.54 110.159 126.54C110.799 126.54 111.266 126.407 111.559 126.14C111.852 125.873 111.999 125.567 111.999 125.22C111.999 124.713 111.792 124.373 111.379 124.2C110.979 124.013 110.419 123.847 109.699 123.7C109.139 123.58 108.579 123.42 108.019 123.22C107.472 123.02 107.012 122.74 106.639 122.38C106.279 122.007 106.099 121.507 106.099 120.88C106.099 120.013 106.432 119.293 107.099 118.72C107.766 118.133 108.699 117.84 109.899 117.84C111.006 117.84 111.899 118.107 112.579 118.64C113.272 119.173 113.679 119.927 113.799 120.9H111.759C111.692 120.473 111.492 120.14 111.159 119.9C110.839 119.66 110.406 119.54 109.859 119.54C109.326 119.54 108.912 119.653 108.619 119.88C108.326 120.093 108.179 120.373 108.179 120.72C108.179 121.067 108.379 121.34 108.779 121.54C109.192 121.74 109.732 121.92 110.399 122.08C111.066 122.227 111.679 122.4 112.239 122.6C112.812 122.787 113.272 123.067 113.619 123.44C113.966 123.813 114.139 124.36 114.139 125.08C114.152 125.987 113.799 126.74 113.079 127.34C112.372 127.94 111.406 128.24 110.179 128.24ZM118.101 128L115.181 118.08H117.301L119.221 125.56L121.381 118.08H123.741L125.901 125.56L127.821 118.08H129.941L127.021 128H124.841L122.561 120.2L120.281 128H118.101ZM135.957 128.24C135.01 128.24 134.157 128.027 133.397 127.6C132.65 127.16 132.057 126.553 131.617 125.78C131.177 124.993 130.957 124.08 130.957 123.04C130.957 122 131.177 121.093 131.617 120.32C132.07 119.533 132.677 118.927 133.437 118.5C134.197 118.06 135.043 117.84 135.977 117.84C136.923 117.84 137.77 118.06 138.517 118.5C139.277 118.927 139.877 119.533 140.317 120.32C140.77 121.093 140.997 122 140.997 123.04C140.997 124.08 140.77 124.993 140.317 125.78C139.877 126.553 139.277 127.16 138.517 127.6C137.757 128.027 136.903 128.24 135.957 128.24ZM135.957 126.42C136.463 126.42 136.93 126.293 137.357 126.04C137.797 125.787 138.15 125.413 138.417 124.92C138.683 124.413 138.817 123.787 138.817 123.04C138.817 122.293 138.683 121.673 138.417 121.18C138.163 120.673 137.817 120.293 137.377 120.04C136.95 119.787 136.483 119.66 135.977 119.66C135.47 119.66 134.997 119.787 134.557 120.04C134.13 120.293 133.783 120.673 133.517 121.18C133.25 121.673 133.117 122.293 133.117 123.04C133.117 123.787 133.25 124.413 133.517 124.92C133.783 125.413 134.13 125.787 134.557 126.04C134.983 126.293 135.45 126.42 135.957 126.42ZM143.289 128V118.08H145.189L145.369 119.96C145.716 119.307 146.196 118.793 146.809 118.42C147.436 118.033 148.189 117.84 149.069 117.84V120.06H148.489C147.903 120.06 147.376 120.16 146.909 120.36C146.456 120.547 146.089 120.873 145.809 121.34C145.543 121.793 145.409 122.427 145.409 123.24V128H143.289ZM155.133 128.24C154.173 128.24 153.327 128.013 152.593 127.56C151.86 127.107 151.287 126.487 150.873 125.7C150.46 124.913 150.253 124.02 150.253 123.02C150.253 122.02 150.46 121.133 150.873 120.36C151.287 119.573 151.86 118.96 152.593 118.52C153.34 118.067 154.193 117.84 155.153 117.84C155.94 117.84 156.627 117.993 157.213 118.3C157.813 118.607 158.28 119.04 158.613 119.6V113.6H160.733V128H158.833L158.613 126.46C158.293 126.927 157.853 127.34 157.293 127.7C156.733 128.06 156.013 128.24 155.133 128.24ZM155.513 126.4C156.42 126.4 157.16 126.087 157.733 125.46C158.32 124.833 158.613 124.027 158.613 123.04C158.613 122.04 158.32 121.233 157.733 120.62C157.16 119.993 156.42 119.68 155.513 119.68C154.607 119.68 153.86 119.993 153.273 120.62C152.687 121.233 152.393 122.04 152.393 123.04C152.393 123.693 152.527 124.273 152.793 124.78C153.06 125.287 153.427 125.687 153.893 125.98C154.373 126.26 154.913 126.4 155.513 126.4Z" fill="#151439" fill-opacity="0.4"/>
<rect x="1" y="1" width="468" height="58" rx="29" stroke="#EBEAED" stroke-width="2"/>
<path d="M28.98 38V32.84L24.34 24H26.74L30.04 30.76L33.32 24H35.7L31.1 32.84V38H28.98ZM40.2534 38.24C39.3068 38.24 38.4534 38.0267 37.6934 37.6C36.9468 37.16 36.3534 36.5533 35.9134 35.78C35.4734 34.9933 35.2534 34.08 35.2534 33.04C35.2534 32 35.4734 31.0933 35.9134 30.32C36.3668 29.5333 36.9734 28.9267 37.7334 28.5C38.4934 28.06 39.3401 27.84 40.2734 27.84C41.2201 27.84 42.0668 28.06 42.8134 28.5C43.5734 28.9267 44.1734 29.5333 44.6134 30.32C45.0668 31.0933 45.2934 32 45.2934 33.04C45.2934 34.08 45.0668 34.9933 44.6134 35.78C44.1734 36.5533 43.5734 37.16 42.8134 37.6C42.0534 38.0267 41.2001 38.24 40.2534 38.24ZM40.2534 36.42C40.7601 36.42 41.2268 36.2933 41.6534 36.04C42.0934 35.7867 42.4468 35.4133 42.7134 34.92C42.9801 34.4133 43.1134 33.7867 43.1134 33.04C43.1134 32.2933 42.9801 31.6733 42.7134 31.18C42.4601 30.6733 42.1134 30.2933 41.6734 30.04C41.2468 29.7867 40.7801 29.66 40.2734 29.66C39.7668 29.66 39.2934 29.7867 38.8534 30.04C38.4268 30.2933 38.0801 30.6733 37.8134 31.18C37.5468 31.6733 37.4134 32.2933 37.4134 33.04C37.4134 33.7867 37.5468 34.4133 37.8134 34.92C38.0801 35.4133 38.4268 35.7867 38.8534 36.04C39.2801 36.2933 39.7468 36.42 40.2534 36.42ZM56.7061 28.08V38H54.8261L54.6661 36.26C54.3594 36.8733 53.9061 37.36 53.3061 37.72C52.7194 38.0667 52.0394 38.24 51.2661 38.24C50.0661 38.24 49.1194 37.8667 48.4261 37.12C47.7461 36.3733 47.4061 35.26 47.4061 33.78V28.08H49.5061V33.56C49.5061 35.48 50.2928 36.44 51.8661 36.44C52.6528 36.44 53.2994 36.16 53.8061 35.6C54.3261 35.04 54.5861 34.24 54.5861 33.2V28.08H56.7061ZM59.383 38V28.08H61.283L61.463 29.96C61.8096 29.3067 62.2896 28.7933 62.903 28.42C63.5296 28.0333 64.283 27.84 65.163 27.84V30.06H64.583C63.9963 30.06 63.4696 30.16 63.003 30.36C62.5496 30.5467 62.183 30.8733 61.903 31.34C61.6363 31.7933 61.503 32.4267 61.503 33.24V38H59.383ZM76.6597 38.24C75.6864 38.24 74.8197 38.0267 74.0597 37.6C73.313 37.16 72.7264 36.5533 72.2997 35.78C71.873 35.0067 71.6597 34.1067 71.6597 33.08C71.6597 32.04 71.8664 31.1267 72.2797 30.34C72.7064 29.5533 73.293 28.94 74.0397 28.5C74.7997 28.06 75.6797 27.84 76.6797 27.84C77.653 27.84 78.4997 28.06 79.2197 28.5C79.9397 28.9267 80.4997 29.5 80.8997 30.22C81.2997 30.94 81.4997 31.7333 81.4997 32.6C81.4997 32.7333 81.493 32.88 81.4797 33.04C81.4797 33.1867 81.473 33.3533 81.4597 33.54H73.7397C73.8064 34.5 74.1197 35.2333 74.6797 35.74C75.253 36.2333 75.913 36.48 76.6597 36.48C77.2597 36.48 77.7597 36.3467 78.1597 36.08C78.573 35.8 78.8797 35.4267 79.0797 34.96H81.1997C80.933 35.8933 80.3997 36.6733 79.5997 37.3C78.813 37.9267 77.833 38.24 76.6597 38.24ZM76.6597 29.58C75.953 29.58 75.3264 29.7933 74.7797 30.22C74.233 30.6333 73.8997 31.26 73.7797 32.1H79.3797C79.3397 31.3267 79.0664 30.7133 78.5597 30.26C78.053 29.8067 77.4197 29.58 76.6597 29.58ZM83.6994 38V28.08H85.5794L85.7594 29.48C86.0794 28.9733 86.4994 28.5733 87.0194 28.28C87.5527 27.9867 88.166 27.84 88.8594 27.84C90.4327 27.84 91.526 28.46 92.1394 29.7C92.4994 29.1267 92.9794 28.6733 93.5794 28.34C94.1927 28.0067 94.8527 27.84 95.5594 27.84C96.7994 27.84 97.7727 28.2133 98.4794 28.96C99.186 29.7067 99.5394 30.82 99.5394 32.3V38H97.4194V32.52C97.4194 30.6 96.686 29.64 95.2194 29.64C94.4727 29.64 93.8594 29.92 93.3794 30.48C92.9127 31.04 92.6794 31.84 92.6794 32.88V38H90.5594V32.52C90.5594 30.6 89.8194 29.64 88.3394 29.64C87.606 29.64 86.9994 29.92 86.5194 30.48C86.0527 31.04 85.8194 31.84 85.8194 32.88V38H83.6994ZM105.38 38.24C104.54 38.24 103.846 38.1 103.3 37.82C102.753 37.54 102.346 37.1733 102.08 36.72C101.813 36.2533 101.68 35.7467 101.68 35.2C101.68 34.24 102.053 33.48 102.8 32.92C103.546 32.36 104.613 32.08 106 32.08H108.6V31.9C108.6 31.1267 108.386 30.5467 107.96 30.16C107.546 29.7733 107.006 29.58 106.34 29.58C105.753 29.58 105.24 29.7267 104.8 30.02C104.373 30.3 104.113 30.72 104.02 31.28H101.9C101.966 30.56 102.206 29.9467 102.62 29.44C103.046 28.92 103.58 28.5267 104.22 28.26C104.873 27.98 105.586 27.84 106.36 27.84C107.746 27.84 108.82 28.2067 109.58 28.94C110.34 29.66 110.72 30.6467 110.72 31.9V38H108.88L108.7 36.3C108.42 36.8467 108.013 37.3067 107.48 37.68C106.946 38.0533 106.246 38.24 105.38 38.24ZM105.8 36.52C106.373 36.52 106.853 36.3867 107.24 36.12C107.64 35.84 107.946 35.4733 108.16 35.02C108.386 34.5667 108.526 34.0667 108.58 33.52H106.22C105.38 33.52 104.78 33.6667 104.42 33.96C104.073 34.2533 103.9 34.62 103.9 35.06C103.9 35.5133 104.066 35.8733 104.4 36.14C104.746 36.3933 105.213 36.52 105.8 36.52ZM114.392 26.2C113.992 26.2 113.658 26.08 113.392 25.84C113.138 25.5867 113.012 25.2733 113.012 24.9C113.012 24.5267 113.138 24.22 113.392 23.98C113.658 23.7267 113.992 23.6 114.392 23.6C114.792 23.6 115.118 23.7267 115.372 23.98C115.638 24.22 115.772 24.5267 115.772 24.9C115.772 25.2733 115.638 25.5867 115.372 25.84C115.118 26.08 114.792 26.2 114.392 26.2ZM113.332 38V28.08H115.452V38H113.332ZM118.25 38V23.6H120.37V38H118.25Z" fill="#151439" fill-opacity="0.4"/>
</svg>
